<?xml version="1.0" encoding="UTF-8" standalone="no"?>
<svg
   width="960"
   height="960"
   viewBox="0 0 960 960"
   version="1.1"
   id="svg1"
   sodipodi:docname="icon.svg"
   inkscape:version="1.4.4 (dcaf3e7, 2026-05-05)"
   xmlns:inkscape="http://www.inkscape.org/namespaces/inkscape"
   xmlns:sodipodi="http://sodipodi.sourceforge.net/DTD/sodipodi-0.dtd"
   xmlns="http://www.w3.org/2000/svg"
   xmlns:svg="http://www.w3.org/2000/svg">
  <defs
     id="defs1" />
  <sodipodi:namedview
     id="namedview1"
     pagecolor="#ffffff"
     bordercolor="#666666"
     borderopacity="1.0"
     inkscape:showpageshadow="2"
     inkscape:pageopacity="0.0"
     inkscape:pagecheckerboard="0"
     inkscape:deskcolor="#d1d1d1"
     inkscape:zoom="0.77395833"
     inkscape:cx="480"
     inkscape:cy="480"
     inkscape:window-width="1680"
     inkscape:window-height="987"
     inkscape:window-x="-8"
     inkscape:window-y="-8"
     inkscape:window-maximized="1"
     inkscape:current-layer="svg1" />
  <path
     style="fill:none;stroke:#000000;stroke-width:28;stroke-linecap:round;stroke-linejoin:miter;stroke-dasharray:none;stroke-opacity:1"
     d="m 198.20125,165.34519 46.51413,51.68237"
     id="path2"
     sodipodi:nodetypes="cc" />
  <path
     style="fill:none;stroke:#000000;stroke-width:28;stroke-linecap:round;stroke-linejoin:miter;stroke-dasharray:none;stroke-opacity:1"
     d="m 383.01724,159.43225 1.5303,-71.84544"
     id="path2-9"
     sodipodi:nodetypes="cc" />
  <path
     style="fill:none;stroke:#000000;stroke-width:28;stroke-linecap:round;stroke-linejoin:miter;stroke-dasharray:none;stroke-opacity:1"
     d="m 521.06259,216.60049 50.00093,-53.47185"
     id="path2-9-2"
     sodipodi:nodetypes="cc" />
  <path
     style="fill:none;stroke:#000000;stroke-width:28;stroke-linecap:round;stroke-linejoin:miter;stroke-dasharray:none;stroke-opacity:1"
     d="M 165.86513,340.95248 91.411841,325.68599"
     id="path2-9-1"
     sodipodi:nodetypes="cc" />
  <path
     style="fill:none;stroke:#000000;stroke-width:28;stroke-linecap:butt;stroke-linejoin:miter;stroke-dasharray:none;stroke-opacity:1"
     d="m 254.71148,476.05073 c 0,0 -92.70434,-152.21471 44.8555,-233.91267 122.22751,-72.59196 206.80312,42.03408 206.80312,42.03408"
     id="path3"
     sodipodi:nodetypes="csc" />
  <path
     style="fill:none;stroke:#000000;stroke-width:28;stroke-linecap:round;stroke-linejoin:miter;stroke-dasharray:none;stroke-opacity:1"
     d="m 186.11009,456.92059 -61.5327,50.62853"
     id="path2-9-1-8"
     sodipodi:nodetypes="cc" />
  <path
     style="fill:none;stroke:#000000;stroke-width:28;stroke-linecap:round;stroke-linejoin:miter;stroke-dasharray:none;stroke-opacity:1"
     d="m 614.88964,670.9741 c 0,0 9.32334,-0.21841 197.36842,-2.63158 19.76712,-0.25367 85.89964,-37.74915 52.51293,-88.06298 -32.62422,-49.16474 -84.11561,2.84516 -84.11561,2.84516"
     id="path10"
     sodipodi:nodetypes="cssc" />
  <path
     style="fill:none;stroke:#000000;stroke-width:28;stroke-linecap:round;stroke-linejoin:miter;stroke-dasharray:none;stroke-opacity:1"
     d="m 259.19339,673.80215 -35.31183,96.26712"
     id="path2-9-1-5"
     sodipodi:nodetypes="cc" />
  <path
     style="fill:none;stroke:#000000;stroke-width:28;stroke-linecap:round;stroke-linejoin:miter;stroke-dasharray:none;stroke-opacity:1"
     d="M 378.71976,677.22321 307.88157,864.2798"
     id="path2-9-1-5-1"
     sodipodi:nodetypes="cc" />
  <path
     style="fill:none;stroke:#000000;stroke-width:28;stroke-linecap:round;stroke-linejoin:miter;stroke-dasharray:none;stroke-opacity:1"
     d="m 409.71976,751.3811 -18.2066,48.8987"
     id="path2-9-1-5-2"
     sodipodi:nodetypes="cc" />
  <path
     style="fill:none;stroke:#000000;stroke-width:28;stroke-linecap:round;stroke-linejoin:miter;stroke-dasharray:none;stroke-opacity:1"
     d="m 288.08813,753.59163 -27.41709,75.21449"
     id="path2-9-1-5-8"
     sodipodi:nodetypes="cc" />
  <path
     style="fill:none;stroke:#000000;stroke-width:28;stroke-linecap:round;stroke-linejoin:miter;stroke-dasharray:none;stroke-opacity:1"
     d="m 317.61444,677.32847 -14.2592,39.68817"
     id="path2-9-1-5-8-1"
     sodipodi:nodetypes="cc" />
  <path
     style="fill:none;stroke:#000000;stroke-width:28;stroke-linecap:butt;stroke-linejoin:miter;stroke-dasharray:none;stroke-opacity:1"
     d="m 213.18977,617.60431 c 0,0 -38.90147,-2.8281 -37.46972,-49.09825 1.17619,-38.01127 58.14267,-47.80619 58.14267,-47.80619 0,0 1.62524,-34.31709 24.54912,-50.39031 24.74804,-17.35224 52.97443,-11.62854 52.97443,-11.62854 0,0 32.26432,-93.70477 122.74563,-89.15208 102.38026,5.1514 120.16151,111.11709 120.16151,111.11709 0,0 77.59726,13.22023 74.93943,82.69179 -2.05135,53.61921 -55.55855,56.85061 -55.55855,56.85061 z"
     id="path1"
     sodipodi:nodetypes="cscscscscc" />
  <path
     style="fill:none;stroke:#000000;stroke-width:28;stroke-linecap:round;stroke-linejoin:miter;stroke-dasharray:none;stroke-opacity:1"
     d="m 436.71602,366.94482 c 0,0 32.34294,-88.62761 124.03768,-77.52356 96.57423,11.69495 112.40915,114.99328 112.40915,114.99328 0,0 97.59541,-7.91381 94.32032,93.02826 -1.47459,45.4487 -71.06325,69.7712 -71.06325,69.7712 l -67.18708,-1.29206"
     id="path4"
     sodipodi:nodetypes="cscscc" />
  <path
     style="fill:none;stroke:#000000;stroke-width:28;stroke-linecap:round;stroke-linejoin:miter;stroke-dasharray:none;stroke-opacity:1"
     d="m 545.24899,730.01346 c 0,0 84.68686,-1.47087 187.34859,-5.16824 30.70708,-1.10592 62.3123,39.79562 47.80619,78.81561 -7.36755,19.81797 -31.88438,36.38316 -52.97443,34.8856 -35.54038,-2.52366 -49.09825,-46.51413 -49.09825,-46.51413"
     id="path5"
     sodipodi:nodetypes="csssc" />
</svg>
