<?xml version="1.0" encoding="UTF-8" standalone="no"?>
<svg
   xmlns:dc="http://purl.org/dc/elements/1.1/"
   xmlns:cc="http://creativecommons.org/ns#"
   xmlns:rdf="http://www.w3.org/1999/02/22-rdf-syntax-ns#"
   xmlns:svg="http://www.w3.org/2000/svg"
   xmlns="http://www.w3.org/2000/svg"
   version="1.1"
   id="Capa_1"
   x="0px"
   y="0px"
   viewBox="0 0 246.027 246.027"
   style="enable-background:new 0 0 246.027 246.027;"
   xml:space="preserve"><metadata
   id="metadata39"><rdf:RDF><cc:Work
       rdf:about=""><dc:format>image/svg+xml</dc:format><dc:type
         rdf:resource="http://purl.org/dc/dcmitype/StillImage" /><dc:title></dc:title></cc:Work></rdf:RDF></metadata><defs
   id="defs37" />

<g
   id="g4">
</g>
<g
   id="g6">
</g>
<g
   id="g8">
</g>
<g
   id="g10">
</g>
<g
   id="g12">
</g>
<g
   id="g14">
</g>
<g
   id="g16">
</g>
<g
   id="g18">
</g>
<g
   id="g20">
</g>
<g
   id="g22">
</g>
<g
   id="g24">
</g>
<g
   id="g26">
</g>
<g
   id="g28">
</g>
<g
   id="g30">
</g>
<g
   id="g32">
</g>
<path
   id="Al"
   class="cls-1"
   d="M 182.81312,102.65163 129.43744,16.017445 a 1.9667087,1.9667087 0 0 1 -0.56256,-1.125119 l -0.57156,-0.562565 h -3.36186 a 0.54905827,0.54905827 0 0 0 -0.56256,0.562565 1.9667087,1.9667087 0 0 0 -0.56256,1.125119 L 67.636886,102.65163 a 67.957212,67.957212 0 0 0 9.550014,83.25884 65.765479,65.765479 0 0 0 42.70053,19.68959 v 28.69054 a 5.0585368,5.0585368 0 1 0 10.11257,0 v -28.69054 a 64.54585,64.54585 0 0 0 42.70055,-19.68959 67.309143,67.309143 0 0 0 10.11257,-83.25884 M 130,36.26959 154.15858,75.648773 h -0.56256 L 130,106.02699 Z m -9.55001,69.7574 L 95.728867,76.773892 120.44999,36.26959 Z m 0,15.18911 v 36.56638 L 76.628841,107.15211 90.130273,85.212288 Z M 130,121.77866 159.21261,84.087169 173.2586,107.71467 129.43744,158.34504 V 121.77866 Z M 84.491175,179.72231 A 57.313582,57.313582 0 0 1 72.132863,116.71563 l 48.879687,56.25596 v 23.06495 A 56.404486,56.404486 0 0 1 84.495675,179.72231 m 81.458655,0 A 58.23618,58.23618 0 0 1 129.9955,196.5991 v -22.50239 l 48.8842,-56.81853 a 57.817636,57.817636 0 0 1 -12.92537,62.44413"
   style="stroke-width:2;stroke:none;stroke-opacity:1;stroke-miterlimit:4;stroke-dasharray:none;fill:#000000;fill-opacity:1" /></svg>