<?xml version="1.0" encoding="UTF-8" standalone="no"?>
<svg
   xmlns:dc="http://purl.org/dc/elements/1.1/"
   xmlns:cc="http://creativecommons.org/ns#"
   xmlns:rdf="http://www.w3.org/1999/02/22-rdf-syntax-ns#"
   xmlns:svg="http://www.w3.org/2000/svg"
   xmlns="http://www.w3.org/2000/svg"
   xml:space="preserve"
   style="enable-background:new 0 0 246.027 246.027;"
   viewBox="0 0 246.027 246.027"
   y="0px"
   x="0px"
   id="Capa_1"
   version="1.1"><metadata
   id="metadata39"><rdf:RDF><cc:Work
       rdf:about=""><dc:format>image/svg+xml</dc:format><dc:type
         rdf:resource="http://purl.org/dc/dcmitype/StillImage" /><dc:title></dc:title></cc:Work></rdf:RDF></metadata><defs
   id="defs37" />

<g
   id="g4">
</g>
<g
   id="g6">
</g>
<g
   id="g8">
</g>
<g
   id="g10">
</g>
<g
   id="g12">
</g>
<g
   id="g14">
</g>
<g
   id="g16">
</g>
<g
   id="g18">
</g>
<g
   id="g20">
</g>
<g
   id="g22">
</g>
<g
   id="g24">
</g>
<g
   id="g26">
</g>
<g
   id="g28">
</g>
<g
   id="g30">
</g>
<g
   id="g32">
</g>
<path
   id="path831"
   d="M 120.66644,204.88859 C 107.6463,203.29133 94.313652,200.32876 82.877737,193.90263 73.228627,188.48055 64.405799,180.77276 58.379286,171.48915 53.29349,163.65468 50.568016,154.187 49.518145,144.90573 47.693433,128.77456 49.679412,112.01929 54.209337,96.430071 58.177199,82.775128 64.960866,69.753114 73.495352,58.379286 80.209131,49.431897 89.335538,42.527298 97.993802,35.444567 107.35101,27.790082 127.5357,14.406227 127.5357,14.406227 c 0,0 17.57197,14.960722 25.70993,23.123314 10.85981,10.892681 22.5353,21.40019 30.75337,34.40208 6.94811,10.992669 12.46111,23.235286 15.11607,35.965809 2.66064,12.75776 3.3455,26.37073 0.52124,39.09327 -2.50926,11.30354 -7.64129,22.43188 -15.11607,31.27462 -9.49238,11.22958 -22.04636,20.80199 -35.96581,25.54094 -8.8066,2.99825 -18.65422,2.21509 -27.88799,1.08233 z"
   style="fill:none;stroke:#000000;stroke-width:7.5;stroke-linecap:butt;stroke-linejoin:miter;stroke-opacity:1;stroke-miterlimit:4;stroke-dasharray:none" /><path
   id="path833"
   d="M 127.5357,21.126334 122.49225,237.16585"
   style="fill:none;stroke:#000000;stroke-width:7.3860054;stroke-linecap:round;stroke-linejoin:miter;stroke-miterlimit:4;stroke-dasharray:none;stroke-opacity:1" /><path
   id="path835"
   d="m 49.518145,141.25702 74.537835,58.90054 76.10158,-60.98551"
   style="fill:none;stroke:#000000;stroke-width:6.23106098;stroke-linecap:butt;stroke-linejoin:miter;stroke-miterlimit:4;stroke-dasharray:none;stroke-opacity:1" /><path
   id="path837"
   d="m 52.645607,104.76997 70.889133,66.19794 73.49535,-71.410375"
   style="fill:none;stroke:#000000;stroke-width:6.23106098;stroke-linecap:butt;stroke-linejoin:miter;stroke-miterlimit:4;stroke-dasharray:none;stroke-opacity:1" /><path
   id="path839"
   d="M 65.155454,74.016595 124.05598,132.39588 182.43527,75.580326"
   style="fill:none;stroke:#000000;stroke-width:6.23106098;stroke-linecap:butt;stroke-linejoin:miter;stroke-opacity:1;stroke-miterlimit:4;stroke-dasharray:none" /><path
   id="path841"
   d="M 83.398981,51.081876 123.0135,92.260122 166.79796,50.039389"
   style="fill:none;stroke:#000000;stroke-width:6.23106098;stroke-linecap:butt;stroke-linejoin:miter;stroke-miterlimit:4;stroke-dasharray:none;stroke-opacity:1" /><path
   id="path843"
   d="M 104.76997,34.402079 126.6622,56.294312 146.9907,35.96581"
   style="fill:none;stroke:#000000;stroke-width:6.23106098;stroke-linecap:butt;stroke-linejoin:miter;stroke-opacity:1;stroke-miterlimit:4;stroke-dasharray:none" /></svg>