<?xml version="1.0" encoding="UTF-8" standalone="no"?>
<svg
   xmlns:dc="http://purl.org/dc/elements/1.1/"
   xmlns:cc="http://creativecommons.org/ns#"
   xmlns:rdf="http://www.w3.org/1999/02/22-rdf-syntax-ns#"
   xmlns:svg="http://www.w3.org/2000/svg"
   xmlns="http://www.w3.org/2000/svg"
   version="1.1"
   id="Capa_1"
   x="0px"
   y="0px"
   viewBox="0 0 246.027 246.027"
   style="enable-background:new 0 0 246.027 246.027;"
   xml:space="preserve"><metadata
   id="metadata39"><rdf:RDF><cc:Work
       rdf:about=""><dc:format>image/svg+xml</dc:format><dc:type
         rdf:resource="http://purl.org/dc/dcmitype/StillImage" /><dc:title></dc:title></cc:Work></rdf:RDF></metadata><defs
   id="defs37" />

<g
   id="g4">
</g>
<g
   id="g6">
</g>
<g
   id="g8">
</g>
<g
   id="g10">
</g>
<g
   id="g12">
</g>
<g
   id="g14">
</g>
<g
   id="g16">
</g>
<g
   id="g18">
</g>
<g
   id="g20">
</g>
<g
   id="g22">
</g>
<g
   id="g24">
</g>
<g
   id="g26">
</g>
<g
   id="g28">
</g>
<g
   id="g30">
</g>
<g
   id="g32">
</g>
<path
   id="Alm"
   class="cls-1"
   d="M 197.80375,131.97822 A 131.21063,131.21063 0 0 0 186.95277,81.110259 150.90586,150.90586 0 0 0 162.94894,44.371285 156.23147,156.23147 0 0 0 127.5357,14.406227 a 6.3562246,6.3562246 0 0 0 -4.59919,0.009 171.16405,171.16405 0 0 0 -35.41325,29.965088 135.87338,135.87338 0 0 0 -24.00382,36.738983 121.61728,121.61728 0 0 0 -10.860075,50.849812 73.609621,73.609621 0 0 0 68.007075,72.91948 v 31.63132 a 4.5719417,4.5719417 0 0 0 9.14388,0 v -31.63133 a 73.609621,73.609621 0 0 0 67.99343,-72.91041 M 62.929217,143.84615 113.22057,194.15113 A 62.286462,62.286462 0 0 1 62.929217,143.8462 m 57.737223,45.22001 -58.881352,-59.34899 a 122.94755,122.94755 0 0 1 2.855761,-24.86192 l 56.025591,55.9484 v 28.25797 0 z m 0,-40.69348 -53.165278,-52.565966 -0.572065,-0.56298 a 141.71656,141.71656 0 0 1 8.571822,-19.218497 l 44.579831,44.084953 v 28.25795 h 0.58569 z m 0,-41.24734 L 81.230603,67.56243 A 144.55871,144.55871 0 0 1 93.21662,51.735426 l 27.44982,27.113834 z m 0,-40.693464 -21.73376,-21.506742 a 130.71576,130.71576 0 0 1 21.73376,-18.074378 v 39.562958 z m 9.14388,-40.13048 a 203.69883,203.69883 0 0 1 21.71559,18.088 l -21.71559,21.4795 v -39.58112 z m 0,52.565974 27.41803,-27.131994 a 144.49968,144.49968 0 0 1 12.0178,15.808842 L 129.22464,107.12539 V 78.84926 h 0.57205 z m 0,41.26098 44.57529,-44.084953 a 141.55312,141.55312 0 0 1 8.57183,19.218496 l -0.57207,0.56298 -52.58868,52.543267 v -28.25795 z m 7.4277,74.04094 50.29136,-50.30497 a 62.990186,62.990186 0 0 1 -50.29136,50.30497 m -7.4277,-5.08498 V 160.8037 l 55.99378,-55.9484 a 118.49818,118.49818 0 0 1 2.85578,24.86647 z"
   style="stroke:none;stroke-width:2;stroke-miterlimit:4;stroke-dasharray:none;stroke-opacity:0.9813084;fill:#000000;fill-opacity:1" /></svg>