<?xml version="1.0" encoding="UTF-8" standalone="no"?>
<svg
   xmlns:dc="http://purl.org/dc/elements/1.1/"
   xmlns:cc="http://creativecommons.org/ns#"
   xmlns:rdf="http://www.w3.org/1999/02/22-rdf-syntax-ns#"
   xmlns:svg="http://www.w3.org/2000/svg"
   xmlns="http://www.w3.org/2000/svg"
   version="1.1"
   id="Capa_1"
   x="0px"
   y="0px"
   viewBox="0 0 246.027 246.027"
   style="enable-background:new 0 0 246.027 246.027;"
   xml:space="preserve"><metadata
   id="metadata39"><rdf:RDF><cc:Work
       rdf:about=""><dc:format>image/svg+xml</dc:format><dc:type
         rdf:resource="http://purl.org/dc/dcmitype/StillImage" /><dc:title></dc:title></cc:Work></rdf:RDF></metadata><defs
   id="defs37" />

<g
   id="g4">
</g>
<g
   id="g6">
</g>
<g
   id="g8">
</g>
<g
   id="g10">
</g>
<g
   id="g12">
</g>
<g
   id="g14">
</g>
<g
   id="g16">
</g>
<g
   id="g18">
</g>
<g
   id="g20">
</g>
<g
   id="g22">
</g>
<g
   id="g24">
</g>
<g
   id="g26">
</g>
<g
   id="g28">
</g>
<g
   id="g30">
</g>
<g
   id="g32">
</g>
<path
   class="st0"
   d="M -229.45437,-70.812457"
   id="path4"
   style="stroke:#000000;stroke-width:9.21501064;stroke-miterlimit:4;stroke-dasharray:none;stroke-opacity:1" /><path
   id="path885"
   d="m 117.27982,223.09227 -3.12747,-34.92332 5.73368,-42.22073 -5.21243,-33.88084 v 0"
   style="fill:none;stroke:#000000;stroke-width:8.5;stroke-linecap:round;stroke-linejoin:miter;stroke-opacity:1;stroke-miterlimit:4;stroke-dasharray:none" /><path
   id="path887"
   d="m 121.17604,148.71253 5.73368,-52.124365 20.32851,-28.147156 35.96581,-26.062181"
   style="fill:none;stroke:#000000;stroke-width:3;stroke-linecap:round;stroke-linejoin:miter;stroke-miterlimit:4;stroke-dasharray:none;stroke-opacity:1" /><path
   id="path889"
   d="m 115.28427,182.53556 8.3399,-40.65701 19.80726,-12.50984 38.57203,-19.80726"
   style="fill:none;stroke:#000000;stroke-width:3;stroke-linecap:round;stroke-linejoin:miter;stroke-miterlimit:4;stroke-dasharray:none;stroke-opacity:1" /><path
   id="path891"
   d="M 113.66273,115.58961 104.80159,85.357481 81.866868,47.306696"
   style="fill:none;stroke:#000000;stroke-width:3.70000005;stroke-linecap:round;stroke-linejoin:miter;stroke-miterlimit:4;stroke-dasharray:none;stroke-opacity:1" /><path
   id="path893"
   d="M 114.6736,112.06738 124.05598,65.155454 136.04459,35.96581 151.16065,19.807258"
   style="fill:none;stroke:#000000;stroke-width:3;stroke-linecap:round;stroke-linejoin:miter;stroke-opacity:1;stroke-miterlimit:4;stroke-dasharray:none" /><path
   id="path895"
   d="M 114.15235,188.16895 97.472559,144.90573 78.707788,112.06738 80.792763,77.665301"
   style="fill:none;stroke:#000000;stroke-width:3;stroke-linecap:round;stroke-linejoin:miter;stroke-opacity:1;stroke-miterlimit:4;stroke-dasharray:none" /><path
   id="path897"
   d="M 114.15235,188.16895 88.090173,169.40418 65.676697,164.19174 44.826952,181.39278 32.838349,197.03009"
   style="fill:none;stroke:#000000;stroke-width:3;stroke-linecap:round;stroke-linejoin:miter;stroke-opacity:1;stroke-miterlimit:4;stroke-dasharray:none" /><path
   id="path899"
   d="m 115.19484,204.84875 23.45597,-27.62592 28.14715,-10.94611 26.58343,8.86114 v 0 l 2.91698,4.20699"
   style="fill:none;stroke:#000000;stroke-width:3;stroke-linecap:round;stroke-linejoin:miter;stroke-miterlimit:4;stroke-dasharray:none;stroke-opacity:1" /><path
   id="path901"
   d="m 119.88603,170.96791 21.37099,-13.55233 25.54094,-7.81866"
   style="fill:none;stroke:#000000;stroke-width:3;stroke-linecap:round;stroke-linejoin:miter;stroke-opacity:1;stroke-miterlimit:4;stroke-dasharray:none" /><g
   transform="matrix(1.0294261,-0.22423002,0.22423002,1.0294261,-11.539417,2.8946643)"
   id="g914"><path
     style="fill:none;stroke:#000000;stroke-width:1.89999998;stroke-linecap:square;stroke-linejoin:miter;stroke-miterlimit:4;stroke-dasharray:none;stroke-opacity:1"
     d="m 192.3389,69.195091 -2.21529,1.172799 1.82436,1.43342 -2.60622,-1.303109 0.91217,-2.215286 -2.86684,3.779016 2.47591,2.345597 -2.60622,-2.475907 0.26063,-4.039639 -3.12747,5.73368 2.3456,2.475908 -3.12746,-3.257773 1.95466,-4.039638 -4.56088,5.994301 2.86684,2.475908 -2.86684,-2.86684 0.78187,-4.039638 -5.47306,5.603369 4.95181,2.606218 -4.69119,-3.257773 1.30311,-4.430571 -3.38808,5.473058 3.38808,2.736529 -5.86399,-2.99715 1.95466,-3.909328 -2.47591,4.951815 3.5184,2.736529 -6.38524,-3.127462 1.82436,-4.30026 -2.60622,5.863991 3.77902,2.475907 -5.47306,-2.86684 0.65155,-2.736529 -2.99715,4.30026 4.56088,2.86684 -7.03679,-3.648705 1.69405,-4.30026 -3.12747,6.385234 5.60337,3.648706 -6.90648,-3.909328 3.12747,-5.994301 -0.39094,1.694041 v 0 l -2.60621,4.821504"
     id="path905" /><path
     style="fill:none;stroke:#000000;stroke-width:1.5;stroke-linecap:square;stroke-linejoin:miter;stroke-miterlimit:4;stroke-dasharray:none;stroke-opacity:1"
     d="m 146.59977,73.104419 7.94897,2.345596 4.03963,5.082125 1.69404,2.215286 2.86684,7.297411 -3.90932,10.294563 2.99715,-8.991454 -1.82435,-5.863991 -1.82436,-4.951815 0.13032,0.521244 -4.16995,-5.603369 z"
     id="path907" /><path
     style="fill:none;stroke:#000000;stroke-width:1.70000005;stroke-linecap:square;stroke-linejoin:miter;stroke-miterlimit:4;stroke-dasharray:none;stroke-opacity:1"
     d="m 151.94252,78.838099 6.77617,2.215285 -4.6912,1.563731 2.73653,-4.039638 -0.52124,10.03394 2.34559,-8.079277 v 0 0"
     id="path909" /></g><g
   id="g922"
   transform="rotate(-27.363347,49.846879,99.755323)"><path
     id="path916"
     d="m 192.3389,69.195091 -2.21529,1.172799 1.82436,1.43342 -2.60622,-1.303109 0.91217,-2.215286 -2.86684,3.779016 2.47591,2.345597 -2.60622,-2.475907 0.26063,-4.039639 -3.12747,5.73368 2.3456,2.475908 -3.12746,-3.257773 1.95466,-4.039638 -4.56088,5.994301 2.86684,2.475908 -2.86684,-2.86684 0.78187,-4.039638 -5.47306,5.603369 4.95181,2.606218 -4.69119,-3.257773 1.30311,-4.430571 -3.38808,5.473058 3.38808,2.736529 -5.86399,-2.99715 1.95466,-3.909328 -2.47591,4.951815 3.5184,2.736529 -6.38524,-3.127462 1.82436,-4.30026 -2.60622,5.863991 3.77902,2.475907 -5.47306,-2.86684 0.65155,-2.736529 -2.99715,4.30026 4.56088,2.86684 -7.03679,-3.648705 1.69405,-4.30026 -3.12747,6.385234 5.60337,3.648706 -6.90648,-3.909328 3.12747,-5.994301 -0.39094,1.694041 v 0 l -2.60621,4.821504"
     style="fill:none;stroke:#000000;stroke-width:1.89999998;stroke-linecap:square;stroke-linejoin:miter;stroke-miterlimit:4;stroke-dasharray:none;stroke-opacity:1" /><path
     id="path918"
     d="m 146.59977,73.104419 7.94897,2.345596 4.03963,5.082125 1.69404,2.215286 2.86684,7.297411 -3.90932,10.294563 2.99715,-8.991454 -1.82435,-5.863991 -1.82436,-4.951815 0.13032,0.521244 -4.16995,-5.603369 z"
     style="fill:none;stroke:#000000;stroke-width:1.5;stroke-linecap:square;stroke-linejoin:miter;stroke-miterlimit:4;stroke-dasharray:none;stroke-opacity:1" /><path
     id="path920"
     d="m 151.94252,78.838099 6.77617,2.215285 -4.6912,1.563731 2.73653,-4.039638 -0.52124,10.03394 2.34559,-8.079277 v 0 0"
     style="fill:none;stroke:#000000;stroke-width:1.70000005;stroke-linecap:square;stroke-linejoin:miter;stroke-miterlimit:4;stroke-dasharray:none;stroke-opacity:1" /></g><g
   transform="rotate(-106.9193,117.41078,96.152331)"
   id="g930"><path
     style="fill:none;stroke:#000000;stroke-width:1.89999998;stroke-linecap:square;stroke-linejoin:miter;stroke-miterlimit:4;stroke-dasharray:none;stroke-opacity:1"
     d="m 192.3389,69.195091 -2.21529,1.172799 1.82436,1.43342 -2.60622,-1.303109 0.91217,-2.215286 -2.86684,3.779016 2.47591,2.345597 -2.60622,-2.475907 0.26063,-4.039639 -3.12747,5.73368 2.3456,2.475908 -3.12746,-3.257773 1.95466,-4.039638 -4.56088,5.994301 2.86684,2.475908 -2.86684,-2.86684 0.78187,-4.039638 -5.47306,5.603369 4.95181,2.606218 -4.69119,-3.257773 1.30311,-4.430571 -3.38808,5.473058 3.38808,2.736529 -5.86399,-2.99715 1.95466,-3.909328 -2.47591,4.951815 3.5184,2.736529 -6.38524,-3.127462 1.82436,-4.30026 -2.60622,5.863991 3.77902,2.475907 -5.47306,-2.86684 0.65155,-2.736529 -2.99715,4.30026 4.56088,2.86684 -7.03679,-3.648705 1.69405,-4.30026 -3.12747,6.385234 5.60337,3.648706 -6.90648,-3.909328 3.12747,-5.994301 -0.39094,1.694041 v 0 l -2.60621,4.821504"
     id="path924" /><path
     style="fill:none;stroke:#000000;stroke-width:1.5;stroke-linecap:square;stroke-linejoin:miter;stroke-miterlimit:4;stroke-dasharray:none;stroke-opacity:1"
     d="m 146.59977,73.104419 7.94897,2.345596 4.03963,5.082125 1.69404,2.215286 2.86684,7.297411 -3.90932,10.294563 2.99715,-8.991454 -1.82435,-5.863991 -1.82436,-4.951815 0.13032,0.521244 -4.16995,-5.603369 z"
     id="path926" /><path
     style="fill:none;stroke:#000000;stroke-width:1.70000005;stroke-linecap:square;stroke-linejoin:miter;stroke-miterlimit:4;stroke-dasharray:none;stroke-opacity:1"
     d="m 151.94252,78.838099 6.77617,2.215285 -4.6912,1.563731 2.73653,-4.039638 -0.52124,10.03394 2.34559,-8.079277 v 0 0"
     id="path928" /></g><g
   id="g938"
   transform="rotate(-8.9886681,389.43017,45.144142)"><path
     id="path932"
     d="m 192.3389,69.195091 -2.21529,1.172799 1.82436,1.43342 -2.60622,-1.303109 0.91217,-2.215286 -2.86684,3.779016 2.47591,2.345597 -2.60622,-2.475907 0.26063,-4.039639 -3.12747,5.73368 2.3456,2.475908 -3.12746,-3.257773 1.95466,-4.039638 -4.56088,5.994301 2.86684,2.475908 -2.86684,-2.86684 0.78187,-4.039638 -5.47306,5.603369 4.95181,2.606218 -4.69119,-3.257773 1.30311,-4.430571 -3.38808,5.473058 3.38808,2.736529 -5.86399,-2.99715 1.95466,-3.909328 -2.47591,4.951815 3.5184,2.736529 -6.38524,-3.127462 1.82436,-4.30026 -2.60622,5.863991 3.77902,2.475907 -5.47306,-2.86684 0.65155,-2.736529 -2.99715,4.30026 4.56088,2.86684 -7.03679,-3.648705 1.69405,-4.30026 -3.12747,6.385234 5.60337,3.648706 -6.90648,-3.909328 3.12747,-5.994301 -0.39094,1.694041 v 0 l -2.60621,4.821504"
     style="fill:none;stroke:#000000;stroke-width:1.89999998;stroke-linecap:square;stroke-linejoin:miter;stroke-miterlimit:4;stroke-dasharray:none;stroke-opacity:1" /><path
     id="path934"
     d="m 146.59977,73.104419 7.94897,2.345596 4.03963,5.082125 1.69404,2.215286 2.86684,7.297411 -3.90932,10.294563 2.99715,-8.991454 -1.82435,-5.863991 -1.82436,-4.951815 0.13032,0.521244 -4.16995,-5.603369 z"
     style="fill:none;stroke:#000000;stroke-width:1.5;stroke-linecap:square;stroke-linejoin:miter;stroke-miterlimit:4;stroke-dasharray:none;stroke-opacity:1" /><path
     id="path936"
     d="m 151.94252,78.838099 6.77617,2.215285 -4.6912,1.563731 2.73653,-4.039638 -0.52124,10.03394 2.34559,-8.079277 v 0 0"
     style="fill:none;stroke:#000000;stroke-width:1.70000005;stroke-linecap:square;stroke-linejoin:miter;stroke-miterlimit:4;stroke-dasharray:none;stroke-opacity:1" /></g><g
   transform="matrix(0.68915422,0.07216519,-0.07216519,0.68915422,57.920999,83.903955)"
   id="g946"><path
     style="fill:none;stroke:#000000;stroke-width:1.89999998;stroke-linecap:square;stroke-linejoin:miter;stroke-miterlimit:4;stroke-dasharray:none;stroke-opacity:1"
     d="m 192.3389,69.195091 -2.21529,1.172799 1.82436,1.43342 -2.60622,-1.303109 0.91217,-2.215286 -2.86684,3.779016 2.47591,2.345597 -2.60622,-2.475907 0.26063,-4.039639 -3.12747,5.73368 2.3456,2.475908 -3.12746,-3.257773 1.95466,-4.039638 -4.56088,5.994301 2.86684,2.475908 -2.86684,-2.86684 0.78187,-4.039638 -5.47306,5.603369 4.95181,2.606218 -4.69119,-3.257773 1.30311,-4.430571 -3.38808,5.473058 3.38808,2.736529 -5.86399,-2.99715 1.95466,-3.909328 -2.47591,4.951815 3.5184,2.736529 -6.38524,-3.127462 1.82436,-4.30026 -2.60622,5.863991 3.77902,2.475907 -5.47306,-2.86684 0.65155,-2.736529 -2.99715,4.30026 4.56088,2.86684 -7.03679,-3.648705 1.69405,-4.30026 -3.12747,6.385234 5.60337,3.648706 -6.90648,-3.909328 3.12747,-5.994301 -0.39094,1.694041 v 0 l -2.60621,4.821504"
     id="path940" /><path
     style="fill:none;stroke:#000000;stroke-width:1.5;stroke-linecap:square;stroke-linejoin:miter;stroke-miterlimit:4;stroke-dasharray:none;stroke-opacity:1"
     d="m 146.59977,73.104419 7.94897,2.345596 4.03963,5.082125 1.69404,2.215286 2.86684,7.297411 -3.90932,10.294563 2.99715,-8.991454 -1.82435,-5.863991 -1.82436,-4.951815 0.13032,0.521244 -4.16995,-5.603369 z"
     id="path942" /><path
     style="fill:none;stroke:#000000;stroke-width:1.70000005;stroke-linecap:square;stroke-linejoin:miter;stroke-miterlimit:4;stroke-dasharray:none;stroke-opacity:1"
     d="m 151.94252,78.838099 6.77617,2.215285 -4.6912,1.563731 2.73653,-4.039638 -0.52124,10.03394 2.34559,-8.079277 v 0 0"
     id="path944" /></g><g
   id="g954"
   transform="matrix(0.24432075,-0.72400796,0.72400796,0.24432075,-17.301387,190.53278)"><path
     id="path948"
     d="m 192.3389,69.195091 -2.21529,1.172799 1.82436,1.43342 -2.60622,-1.303109 0.91217,-2.215286 -2.86684,3.779016 2.47591,2.345597 -2.60622,-2.475907 0.26063,-4.039639 -3.12747,5.73368 2.3456,2.475908 -3.12746,-3.257773 1.95466,-4.039638 -4.56088,5.994301 2.86684,2.475908 -2.86684,-2.86684 0.78187,-4.039638 -5.47306,5.603369 4.95181,2.606218 -4.69119,-3.257773 1.30311,-4.430571 -3.38808,5.473058 3.38808,2.736529 -5.86399,-2.99715 1.95466,-3.909328 -2.47591,4.951815 3.5184,2.736529 -6.38524,-3.127462 1.82436,-4.30026 -2.60622,5.863991 3.77902,2.475907 -5.47306,-2.86684 0.65155,-2.736529 -2.99715,4.30026 4.56088,2.86684 -7.03679,-3.648705 1.69405,-4.30026 -3.12747,6.385234 5.60337,3.648706 -6.90648,-3.909328 3.12747,-5.994301 -0.39094,1.694041 v 0 l -2.60621,4.821504"
     style="fill:none;stroke:#000000;stroke-width:1.89999998;stroke-linecap:square;stroke-linejoin:miter;stroke-miterlimit:4;stroke-dasharray:none;stroke-opacity:1" /><path
     id="path950"
     d="m 146.59977,73.104419 7.94897,2.345596 4.03963,5.082125 1.69404,2.215286 2.86684,7.297411 -3.90932,10.294563 2.99715,-8.991454 -1.82435,-5.863991 -1.82436,-4.951815 0.13032,0.521244 -4.16995,-5.603369 z"
     style="fill:none;stroke:#000000;stroke-width:1.5;stroke-linecap:square;stroke-linejoin:miter;stroke-miterlimit:4;stroke-dasharray:none;stroke-opacity:1" /><path
     id="path952"
     d="m 151.94252,78.838099 6.77617,2.215285 -4.6912,1.563731 2.73653,-4.039638 -0.52124,10.03394 2.34559,-8.079277 v 0 0"
     style="fill:none;stroke:#000000;stroke-width:1.70000005;stroke-linecap:square;stroke-linejoin:miter;stroke-miterlimit:4;stroke-dasharray:none;stroke-opacity:1" /></g><path
   id="path956"
   d="m 29.854567,204.37803 14.972385,-22.98525 -7.600887,0.50218 19.903045,-11.05725 -5.528623,14.00585 14.07621,-20.65182 -17.02481,-2.93698 22.48307,4.4229 -7.002924,-12.90012 14.005847,15.48015 -12.531547,11.05725 18.428745,-10.3201"
   style="fill:none;stroke:#000000;stroke-width:3.9;stroke-linecap:butt;stroke-linejoin:miter;stroke-opacity:1;stroke-miterlimit:4;stroke-dasharray:none" /><path
   id="path958"
   d="m 127.89549,188.89788 c 0,0 1e-5,5.8972 0.36858,3.68575 0.36858,-2.21144 -0.36858,-3.68575 -0.36858,-3.68575 z"
   style="fill:none;stroke:#000000;stroke-width:1px;stroke-linecap:butt;stroke-linejoin:miter;stroke-opacity:1" /><path
   id="path960"
   d="m 127.89549,188.89788 c 0,0 22.48307,2.9486 19.90304,2.58003 -2.58002,-0.36858 -15.11156,-4.79147 -15.11156,-4.79147 l -4.79148,2.21144 8.8458,-22.48307 -2.21145,12.16298 2.21145,3.68574 21.00877,2.58003 -19.09925,-7.62073 10.62202,-15.23092 -5.89719,12.53155 26.16881,5.8972 -19.53446,-8.8458 13.8479,-13.84243 -9.05643,11.99956 20.27162,5.16005 -12.16297,-6.26578 21.37734,-7.00293 c -0.01,0.002 -13.16047,7.96776 -9.21437,7.3715 -1.84288,0.36858 13.2687,11.42583 13.2687,11.42583 l -8.47722,-10.32009 14.00584,-2.58004 -7.00292,5.16006 2.58002,2.58002 v 0 l 6.85087,4.08424"
   style="fill:none;stroke:#000000;stroke-width:5.30000019;stroke-linecap:round;stroke-linejoin:miter;stroke-miterlimit:4;stroke-dasharray:none;stroke-opacity:1" /><path
   style="fill:none;stroke:#000000;stroke-width:3.1351707;stroke-linecap:butt;stroke-linejoin:miter;stroke-miterlimit:4;stroke-dasharray:none;stroke-opacity:1"
   d="m 79.016227,125.27566 13.475454,-12.44969 -7.578104,-1.4823 11.647377,-2.04221 -4.975875,10.05657 9.720281,-12.24854 -7.214032,-3.58312 13.600882,2.43861 -4.82848,-9.631211 10.76268,10.746601 -8.33006,3.88506 14.74338,-5.19865"
   id="path962" /></svg>