<svg height="512pt" viewBox="0 0 512 512" width="512pt" xmlns="http://www.w3.org/2000/svg"><path d="m256 0c-140.960938 0-256 115.050781-256 256 0 140.960938 115.050781 256 256 256 140.960938 0 256-115.050781 256-256 0-140.960938-115.050781-256-256-256zm0 482c-124.617188 0-226-101.382812-226-226s101.382812-226 226-226 226 101.382812 226 226-101.382812 226-226 226zm0 0"/><path d="m256 60c-52.085938 0-101.234375 20.460938-138.386719 57.613281-37.152343 37.152344-57.613281 86.300781-57.613281 138.386719 0 91.699219 63.113281 141.488281 66.832031 146.851562l42.964844-41.878906-20.9375-21.480468-21.03125 20.496093c-21.230469-25.851562-34.070313-56.648437-37.117187-88.988281h30.289062v-30h-30.316406c3.042968-33.78125 16.242187-64.675781 36.519531-89.597656l21.652344 21.109375 20.941406-21.484375-21.652344-21.105469c25.460938-21.816406 57.585938-36.0625 92.855469-39.238281v30.316406h30v-30.316406c35.269531 3.175781 67.390625 17.421875 92.855469 39.238281l-21.65625 21.105469 20.941406 21.484375 21.65625-21.109375c20.277344 24.921875 33.476563 55.816406 36.515625 89.597656h-30.3125v29.988281h30.289062c-3.046874 32.339844-15.886718 63.148438-37.117187 89-4.738281-4.621093-11.46875-11.179687-21.03125-20.5l-20.9375 21.484375c2.113281 2.074219-11.101563-10.894531 42.828125 42.015625 3.753906-5.410156 66.96875-55.160156 66.96875-146.988281 0-107.800781-88.214844-196-196-196zm0 0"/><path d="m301 256c0-19.554688-12.539062-36.226562-30-42.421875v-62.578125h-30v62.578125c-17.460938 6.195313-30 22.867187-30 42.421875 0 15.089844 7.472656 28.460938 18.90625 36.628906l-25.515625 68.371094h103.21875l-25.515625-68.371094c11.433594-8.167968 18.90625-21.539062 18.90625-36.628906zm-53.390625 75 8.390625-22.488281 8.390625 22.488281zm8.390625-60c-8.269531 0-15-6.730469-15-15s6.730469-15 15-15 15 6.730469 15 15-6.730469 15-15 15zm0 0"/><path d="m211 391h90v30h-90zm0 0"/></svg>