<?xml version="1.0" encoding="UTF-8" standalone="no"?>
<svg
   xmlns:dc="http://purl.org/dc/elements/1.1/"
   xmlns:cc="http://creativecommons.org/ns#"
   xmlns:rdf="http://www.w3.org/1999/02/22-rdf-syntax-ns#"
   xmlns:svg="http://www.w3.org/2000/svg"
   xmlns="http://www.w3.org/2000/svg"
   xml:space="preserve"
   style="enable-background:new 0 0 246.027 246.027;"
   viewBox="0 0 246.027 246.027"
   y="0px"
   x="0px"
   id="Capa_1"
   version="1.1"><metadata
   id="metadata39"><rdf:RDF><cc:Work
       rdf:about=""><dc:format>image/svg+xml</dc:format><dc:type
         rdf:resource="http://purl.org/dc/dcmitype/StillImage" /><dc:title></dc:title></cc:Work></rdf:RDF></metadata><defs
   id="defs37" />

<g
   id="g4">
</g>
<g
   id="g6">
</g>
<g
   id="g8">
</g>
<g
   id="g10">
</g>
<g
   id="g12">
</g>
<g
   id="g14">
</g>
<g
   id="g16">
</g>
<g
   id="g18">
</g>
<g
   id="g20">
</g>
<g
   id="g22">
</g>
<g
   id="g24">
</g>
<g
   id="g26">
</g>
<g
   id="g28">
</g>
<g
   id="g30">
</g>
<g
   id="g32">
</g>
<path
   style="stroke:#000000;stroke-width:9.21501064;stroke-miterlimit:4;stroke-dasharray:none;stroke-opacity:1"
   id="path4"
   d="M 4.0627729,-34.325403"
   class="st0" /><path
   style="fill:#000000;fill-opacity:1;stroke:none;stroke-width:4.39849758;stroke-opacity:0.94392527"
   d="m 124.9138,40.715944 a 38.047006,38.047006 0 0 0 3.60237,8.981732 14.180757,14.180757 0 0 0 9.32042,6.263461 22.823805,22.823805 0 0 0 6.56695,0.20673 46.844001,46.844001 0 0 0 1.06004,21.112789 5.3221823,5.3221823 0 0 0 8.04925,2.296016 l 4.65801,-3.760716 a 40.620127,40.620127 0 0 0 5.71805,22.766625 5.6344757,5.6344757 0 0 0 8.26038,0.417857 l 2.54233,-3.342858 a 64.218068,64.218068 0 0 1 -1.4823,19.42377 5.2210169,5.2210169 0 0 0 2.12008,5.22101 5.6080847,5.6080847 0 0 0 5.71805,0 l 6.35583,-4.17857 a 98.218456,98.218456 0 0 1 -6.1579,23.39121 5.3089868,5.3089868 0 0 0 1.06004,5.22102 5.2078214,5.2078214 0 0 0 5.08466,1.4603 l 8.26038,-2.29602 c -4.23575,8.56388 -11.43609,17.96347 -16.71429,27.98764 a 5.2078214,5.2078214 0 0 0 4.43808,7.27952 h 0.21113 a 57.497163,57.497163 0 0 1 -18.85196,11.6956 c -8.04925,2.29602 -18.63644,2.08929 -34.74813,1.04245 v -25.68723 l 39.58648,-13.78489 a 5.1550394,5.1550394 0 0 0 3.17571,-6.26786 5.2781973,5.2781973 0 0 0 -6.35583,-3.13173 l -36.43275,12.53132 v -24.41166 l 24.57,-8.77061 a 5.1110544,5.1110544 0 0 0 3.17572,-6.47459 5.3573703,5.3573703 0 0 0 -6.77809,-2.925 l -20.96763,7.51704 V 82.695207 a 5.0846634,5.0846634 0 0 0 -10.16493,0 V 120.4959 l -20.96764,-7.51704 a 5.7180471,5.7180471 0 0 0 -6.778087,3.95865 5.0494755,5.0494755 0 0 0 3.175716,5.43215 l 24.570011,8.7706 v 24.43366 L 83.36119,142.81827 a 5.7180471,5.7180471 0 0 0 -6.778085,3.95865 5.001092,5.001092 0 0 0 3.60237,5.43215 l 39.586475,13.78489 v 25.68722 c -16.0985,1.04245 -26.685681,1.25358 -34.748128,-1.04244 a 45.854339,45.854339 0 0 1 -18.640833,-11.90673 5.9863555,5.9863555 0 0 0 4.74158,-7.27072 C 65.846372,161.43711 58.628437,152.03752 54.410278,143.47365 l 8.260379,2.29601 a 5.0758664,5.0758664 0 0 0 5.084663,-1.4603 5.3089868,5.3089868 0 0 0 1.060038,-5.22101 98.209659,98.209659 0 0 1 -6.157897,-23.39121 l 6.355829,4.17857 a 5.6080847,5.6080847 0 0 0 5.718048,0 4.9351145,4.9351145 0 0 0 2.120075,-5.22102 71.304048,71.304048 0 0 1 -1.482293,-19.423765 l 2.542331,3.342859 a 5.3485733,5.3485733 0 0 0 8.260379,-0.417858 44.424828,44.424828 0 0 0 5.718047,-22.766624 l 4.658013,3.760715 a 5.4453403,5.4453403 0 0 0 8.04925,-2.296015 46.492122,46.492122 0 0 0 1.06004,-21.11279 22.819407,22.819407 0 0 0 6.56695,-0.206729 15.271584,15.271584 0 0 0 9.30283,-6.254664 42.493887,42.493887 0 0 0 3.38684,-8.563875 z M 124.70267,17.74259 a 4.94831,4.94831 0 0 0 -4.65801,3.549588 188.89789,188.89789 0 0 1 -7.41587,22.973353 3.3868433,3.3868433 0 0 1 -2.75346,1.878159 27.508205,27.508205 0 0 1 -9.53154,-0.628985 5.3617688,5.3617688 0 0 0 -5.929175,6.272258 40.906029,40.906029 0 0 1 1.271166,14.620606 L 89.967734,61.60441 a 4.9087235,4.9087235 0 0 0 -5.278197,-0.628985 5.3837613,5.3837613 0 0 0 -2.964588,4.59643 101.12146,101.12146 0 0 1 -1.693422,20.052751 l -4.468873,-5.643272 a 4.904325,4.904325 0 0 0 -5.084664,-1.67143 5.2386109,5.2386109 0 0 0 -3.813497,3.958648 82.691758,82.691758 0 0 0 -1.271166,23.602338 l -6.157897,-3.95865 a 5.3133853,5.3133853 0 0 0 -5.278198,-0.20673 5.1066559,5.1066559 0 0 0 -2.753459,4.3985 86.166572,86.166572 0 0 0 5.084663,27.75892 l -8.682634,-2.50714 a 5.2210169,5.2210169 0 0 0 -6.35583,5.85 c 2.331204,11.69561 9.953801,21.93091 16.098502,31.74396 h -3.378046 a 5.4717312,5.4717312 0 0 0 -4.658009,2.925 5.1374454,5.1374454 0 0 0 0.84891,5.43214 c 11.651621,12.94918 20.967639,20.04836 32.197004,23.18009 10.164928,2.925 21.605417,2.50714 37.488397,1.4603 v 30.70151 a 5.1198514,5.1198514 0 0 0 5.06707,5.01869 5.2781973,5.2781973 0 0 0 5.08466,-5.01429 v -30.90824 c 15.88738,1.04244 27.32347,1.4603 37.4884,-1.4647 11.43609,-3.13173 20.54538,-10.23531 32.197,-23.18448 a 5.0714679,5.0714679 0 0 0 0.84451,-5.40576 5.4717312,5.4717312 0 0 0 -4.658,-2.925 H 192.268 c 6.35582,-9.81745 13.76729,-20.04835 16.0985,-31.74396 a 5.4541373,5.4541373 0 0 0 -6.35583,-5.85 l -8.68264,2.50714 a 88.286648,88.286648 0 0 0 5.08467,-27.77651 4.8647385,4.8647385 0 0 0 -2.75346,-4.3985 5.3133853,5.3133853 0 0 0 -5.2782,0.20673 l -6.1579,3.95865 a 75.680553,75.680553 0 0 0 -1.27116,-23.602339 4.94831,4.94831 0 0 0 -8.68264,-2.089286 l -4.44688,5.638874 a 101.12146,101.12146 0 0 1 -1.69342,-20.048353 5.001092,5.001092 0 0 0 -2.96459,-4.59643 4.9087235,4.9087235 0 0 0 -5.2782,0.628985 l -5.92917,4.59643 a 40.906029,40.906029 0 0 1 1.27117,-14.620606 5.3617688,5.3617688 0 0 0 -5.92918,-6.26786 27.512604,27.512604 0 0 1 -9.55794,0.628986 3.3868433,3.3868433 0 0 1 -2.75345,-1.878159 c -1.69343,-2.713873 -3.40444,-10.859891 -7.41147,-22.973354 a 5.1022574,5.1022574 0 0 0 -4.87354,-3.342858 z"
   class="cls-1"
   id="Bjork" /></svg>