<?xml version="1.0" encoding="UTF-8" standalone="no"?>
<svg
   xmlns:dc="http://purl.org/dc/elements/1.1/"
   xmlns:cc="http://creativecommons.org/ns#"
   xmlns:rdf="http://www.w3.org/1999/02/22-rdf-syntax-ns#"
   xmlns:svg="http://www.w3.org/2000/svg"
   xmlns="http://www.w3.org/2000/svg"
   xml:space="preserve"
   style="enable-background:new 0 0 246.027 246.027;"
   viewBox="0 0 246.027 246.027"
   y="0px"
   x="0px"
   id="Capa_1"
   version="1.1"><metadata
   id="metadata39"><rdf:RDF><cc:Work
       rdf:about=""><dc:format>image/svg+xml</dc:format><dc:type
         rdf:resource="http://purl.org/dc/dcmitype/StillImage" /><dc:title></dc:title></cc:Work></rdf:RDF></metadata><defs
   id="defs37" />

<g
   id="g4">
</g>
<g
   id="g6">
</g>
<g
   id="g8">
</g>
<g
   id="g10">
</g>
<g
   id="g12">
</g>
<g
   id="g14">
</g>
<g
   id="g16">
</g>
<g
   id="g18">
</g>
<g
   id="g20">
</g>
<g
   id="g22">
</g>
<g
   id="g24">
</g>
<g
   id="g26">
</g>
<g
   id="g28">
</g>
<g
   id="g30">
</g>
<g
   id="g32">
</g>
<g
   transform="translate(-173.05288)"
   id="g889"><path
     style="fill:none;stroke:#000000;stroke-width:7.5;stroke-linecap:round;stroke-linejoin:miter;stroke-miterlimit:4;stroke-dasharray:none;stroke-opacity:1"
     d="m 287.72648,230.38968 c 0,0 10.42067,-65.13045 12.50985,-97.9938 2.44715,-38.494321 0,-115.716084 0,-115.716084"
     id="path840" /><path
     style="fill:none;stroke:#000000;stroke-width:7.5;stroke-linecap:butt;stroke-linejoin:miter;stroke-miterlimit:4;stroke-dasharray:none;stroke-opacity:1"
     d="m 293.98141,201.20004 c 12.49417,1.48198 24.80451,-8.43348 33.35959,-17.65905 11.70783,-12.6254 17.52006,-30.41404 20.66004,-47.34373 2.57833,-13.90151 1.5763,-28.66765 -1.89527,-42.373407 -3.12918,-12.354004 -10.2888,-23.376274 -16.6798,-34.402079 -8.65199,-14.926487 -29.18964,-42.741978 -29.18964,-42.741978 v 0 c 0,0 -7.74288,10.354422 -11.46736,15.637309 -7.49724,10.63426 -16.55196,20.452132 -21.89223,32.317105 -6.33027,14.064551 -10.11209,29.463122 -11.46736,44.82695 -1.30581,14.80317 -0.93538,30.21918 3.31717,44.45838 3.45071,11.55429 9.97942,22.24324 17.53257,31.64319 4.93473,6.14131 9.89886,14.70934 17.72229,15.63731 z"
     id="path842" /><path
     style="fill:none;stroke:#000000;stroke-width:3.29999995;stroke-linecap:round;stroke-linejoin:miter;stroke-miterlimit:4;stroke-dasharray:none;stroke-opacity:1"
     d="M 285.27698,41.099346 300.75712,63.95099 318.81729,44.41652"
     id="path844" /><path
     style="fill:none;stroke:#000000;stroke-width:3.29999995;stroke-linecap:round;stroke-linejoin:miter;stroke-miterlimit:4;stroke-dasharray:none;stroke-opacity:1"
     d="m 274.5883,52.156593 24.32595,38.33179 27.64312,-30.960292"
     id="path846" /><path
     style="fill:none;stroke:#000000;stroke-width:3.29999995;stroke-linecap:round;stroke-linejoin:miter;stroke-miterlimit:4;stroke-dasharray:none;stroke-opacity:1"
     d="M 266.84823,66.531014 301.1257,112.60288 335.40316,70.953913"
     id="path848" /><path
     style="fill:none;stroke:#000000;stroke-width:3.29999995;stroke-linecap:round;stroke-linejoin:miter;stroke-miterlimit:4;stroke-dasharray:none;stroke-opacity:1"
     d="M 260.95103,82.01116 296.7028,137.2974 344.24896,85.696909"
     id="path850" /><path
     style="fill:none;stroke:#000000;stroke-width:3.29999995;stroke-linecap:round;stroke-linejoin:miter;stroke-miterlimit:4;stroke-dasharray:none;stroke-opacity:1"
     d="m 256.89671,104.49423 37.59464,55.65481 51.60049,-54.18051"
     id="path852" /><path
     style="fill:none;stroke:#000000;stroke-width:3.29999995;stroke-linecap:round;stroke-linejoin:miter;stroke-miterlimit:4;stroke-dasharray:none;stroke-opacity:1"
     d="m 256.52813,132.13735 37.59464,44.59756 54.91766,-55.65481"
     id="path854" /><path
     style="fill:none;stroke:#000000;stroke-width:3.29999995;stroke-linecap:round;stroke-linejoin:miter;stroke-miterlimit:4;stroke-dasharray:none;stroke-opacity:1"
     d="m 342.77466,144.66889 -49.38904,46.80902 -29.11741,-30.9603"
     id="path856" /></g></svg>