<?xml version="1.0" encoding="UTF-8" standalone="no"?>
<svg
   xmlns:dc="http://purl.org/dc/elements/1.1/"
   xmlns:cc="http://creativecommons.org/ns#"
   xmlns:rdf="http://www.w3.org/1999/02/22-rdf-syntax-ns#"
   xmlns:svg="http://www.w3.org/2000/svg"
   xmlns="http://www.w3.org/2000/svg"
   version="1.1"
   id="Capa_1"
   x="0px"
   y="0px"
   viewBox="0 0 246.027 246.027"
   style="enable-background:new 0 0 246.027 246.027;"
   xml:space="preserve"><metadata
   id="metadata39"><rdf:RDF><cc:Work
       rdf:about=""><dc:format>image/svg+xml</dc:format><dc:type
         rdf:resource="http://purl.org/dc/dcmitype/StillImage" /><dc:title></dc:title></cc:Work></rdf:RDF></metadata><defs
   id="defs37" />

<g
   id="g4">
</g>
<g
   id="g6">
</g>
<g
   id="g8">
</g>
<g
   id="g10">
</g>
<g
   id="g12">
</g>
<g
   id="g14">
</g>
<g
   id="g16">
</g>
<g
   id="g18">
</g>
<g
   id="g20">
</g>
<g
   id="g22">
</g>
<g
   id="g24">
</g>
<g
   id="g26">
</g>
<g
   id="g28">
</g>
<g
   id="g30">
</g>
<g
   id="g32">
</g>
<path
   class="st0"
   d="M 4.0627729,-34.325403"
   id="path4"
   style="stroke:#000000;stroke-width:9.21501064;stroke-miterlimit:4;stroke-dasharray:none;stroke-opacity:1" /><path
   style="fill:#000000;fill-opacity:1;stroke:none;stroke-width:4.39850855"
   d="m 67.909385,185.27218 a 79.173156,79.173156 0 0 0 50.719195,25.22984 l -1.09962,26.87049 8.73544,0.54981 1.09082,-26.87488 A 79.806535,79.806535 0 0 0 183.53298,76.681801 L 129.53689,17.996901 71.18188,72.29209 A 81.653909,81.653909 0 0 0 67.909385,185.27218 M 174.79314,85.456826 a 67.006878,67.006878 0 0 1 -3.27249,94.330414 62.832693,62.832693 0 0 1 -43.10538,17.55004 l 0.54541,-14.25996 46.9057,-44.42494 -5.99957,-6.59776 -40.90613,38.39018 1.09083,-25.22984 34.39194,-31.77043 -6.00836,-6.59776 -27.81617,25.77526 1.09083,-25.22984 21.27119,-19.744908 -5.99956,-6.597762 -14.71741,13.727745 1.09962,-33.455055 -8.72664,-0.549814 -1.09083,33.455055 -13.63538,-14.809778 -6.54497,6.034754 19.62614,21.394343 -1.09083,25.22984 -25.63451,-27.97011 -6.544982,6.03475 31.634072,34.5327 -1.09083,25.22984 -38.179053,-41.13485 -6.544982,6.03035 44.187425,47.1828 -0.54542,14.25996 A 68.462784,68.462784 0 0 1 77.185838,175.40192 67.006878,67.006878 0 0 1 80.458333,81.071513 L 128.99147,35.54695 Z"
   class="cls-1"
   id="Bok" /></svg>