<?xml version="1.0" encoding="UTF-8" standalone="no"?>
<svg
   xmlns:dc="http://purl.org/dc/elements/1.1/"
   xmlns:cc="http://creativecommons.org/ns#"
   xmlns:rdf="http://www.w3.org/1999/02/22-rdf-syntax-ns#"
   xmlns:svg="http://www.w3.org/2000/svg"
   xmlns="http://www.w3.org/2000/svg"
   xml:space="preserve"
   style="enable-background:new 0 0 246.027 246.027;"
   viewBox="0 0 246.027 246.027"
   y="0px"
   x="0px"
   id="Capa_1"
   version="1.1"><metadata
   id="metadata39"><rdf:RDF><cc:Work
       rdf:about=""><dc:format>image/svg+xml</dc:format><dc:type
         rdf:resource="http://purl.org/dc/dcmitype/StillImage" /><dc:title></dc:title></cc:Work></rdf:RDF></metadata><defs
   id="defs37" />

<g
   id="g4">
</g>
<g
   id="g6">
</g>
<g
   id="g8">
</g>
<g
   id="g10">
</g>
<g
   id="g12">
</g>
<g
   id="g14">
</g>
<g
   id="g16">
</g>
<g
   id="g18">
</g>
<g
   id="g20">
</g>
<g
   id="g22">
</g>
<g
   id="g24">
</g>
<g
   id="g26">
</g>
<g
   id="g28">
</g>
<g
   id="g30">
</g>
<g
   id="g32">
</g>
<path
   style="stroke:#000000;stroke-width:9.21501064;stroke-miterlimit:4;stroke-dasharray:none;stroke-opacity:1"
   id="path4"
   d="M 4.0627729,-34.325403"
   class="st0" /><path
   style="fill:#000000;fill-opacity:0.9953271;stroke:none;stroke-width:4.39538813"
   d="m 169.15245,156.08397 c 15.25639,-10.94012 30.51277,-23.37027 28.98759,-34.3104 -0.50987,-4.96239 -4.57562,-9.44569 -11.69614,-12.43454 l -2.54054,-0.99337 a 33.189575,33.189575 0 0 1 -7.12052,-2.98446 l 0.50986,-0.49668 a 44.230789,44.230789 0 0 0 12.71586,-22.856019 c 2.03507,-6.962294 1.5252,-11.933479 -1.01973,-14.917947 -3.0504,-3.977826 -8.64573,-3.481146 -13.73119,-3.481146 -4.07013,0 -8.64573,0.496678 -10.6808,-1.490037 a 7.6699519,7.6699519 0 0 1 -2.03506,-6.465616 16.394797,16.394797 0 0 0 -4.07013,-12.926835 14.271825,14.271825 0 0 0 -9.66985,-1.986717 8.2017939,8.2017939 0 0 1 -3.56027,0 7.0677838,7.0677838 0 0 1 -0.50986,-2.984468 19.664965,19.664965 0 0 0 -18.80787,-19.401241 h -0.50986 a 19.664965,19.664965 0 0 0 -18.81665,19.39245 7.08097,7.08097 0 0 1 -0.50987,2.984469 8.2061893,8.2061893 0 0 1 -3.56027,0 10.135765,10.135765 0 0 0 -9.66985,1.986716 17.142013,17.142013 0 0 0 -4.070128,12.926835 8.316074,8.316074 0 0 1 -2.035065,6.465616 14.465222,14.465222 0 0 1 -10.680791,1.490037 c -5.085465,0 -10.680794,-0.49668 -13.731194,3.481147 -2.544929,2.984468 -3.050398,7.955652 -1.015334,14.917946 3.560264,13.920193 9.151198,19.88913 12.715858,22.85602 l 0.518656,0.52744 c -1.5252,0.49668 -4.07013,1.99111 -7.120529,2.98447 l -2.540534,0.99336 c -7.120528,2.98447 -11.186263,6.96229 -11.696128,12.43015 -1.525199,11.42801 13.731192,23.86696 28.477719,34.3104 7.630393,5.46786 8.135863,8.45234 7.630393,8.94901 a 4.13606,4.13606 0 0 1 -2.544929,2.48779 9.8808313,9.8808313 0 0 0 -7.120529,6.9623 c -1.015334,5.46786 4.070129,11.428 15.256392,18.39909 12.205993,7.95565 15.256393,14.91795 17.291453,20.88249 2.03507,4.97119 4.07013,9.44569 10.68079,10.44344 v 11.42801 a 2.6987682,2.6987682 0 0 0 2.54494,2.48779 3.2306101,3.2306101 0 0 0 2.54493,-2.48779 v -11.95106 c 7.12052,-0.99335 8.64572,-5.46786 10.68079,-10.44344 2.03506,-5.96454 5.08546,-12.92684 17.29145,-20.88249 11.18626,-6.96229 15.76627,-12.92684 15.2564,-18.39909 a 8.5754018,8.5754018 0 0 0 -6.59309,-6.9623 5.5645611,5.5645611 0 0 1 -2.54054,-2.48779 c -0.50985,0 -0.50985,-2.98447 7.12054,-8.45233 m -13.2477,10.44785 a 9.3226178,9.3226178 0 0 0 6.59308,6.96228 5.9601461,5.9601461 0 0 1 3.0504,2.48779 c 0,0.99336 0,4.97119 -12.71586,12.92684 a 39.81782,39.81782 0 0 0 -19.3397,23.86696 c -1.52521,4.4745 -2.54493,6.46561 -5.59533,6.96229 v -28.34146 a 68.844961,68.844961 0 0 1 24.41198,-9.44569 2.7471174,2.7471174 0 1 0 -0.50986,-5.46786 72.690926,72.690926 0 0 0 -23.86695,8.46551 v -25.37457 c 4.07011,-4.47451 27.97224,-29.83589 56.44996,-31.32593 a 2.7471174,2.7471174 0 1 0 -0.50987,-5.46786 c -25.93278,1.49003 -47.29437,19.39246 -56.95982,28.83814 v -34.3104 c 4.07011,-4.97119 28.47771,-32.319287 50.34916,-35.800434 a 2.1976939,2.1976939 0 0 0 2.03507,-2.984468 2.2372525,2.2372525 0 0 0 -3.0504,-1.986716 C 156.43659,79.51192 136.09474,99.38347 126.94354,108.84674 V 72.052947 c 0,-7.955652 14.24106,-13.423515 19.83199,-14.917946 a 2.821839,2.821839 0 0 0 2.03506,-3.481147 2.900956,2.900956 0 0 0 -3.56027,-1.986715 c -0.50986,0 -15.25639,3.977825 -21.36158,11.933478 -6.10519,-8.452332 -20.34185,-11.933478 -21.36159,-11.933478 a 2.900956,2.900956 0 0 0 -3.56026,1.986715 2.821839,2.821839 0 0 0 2.03507,3.481147 c 5.59533,1.490036 19.83198,6.465616 19.83198,14.917946 V 108.84674 C 111.68275,98.90437 91.336497,79.015241 71.504506,76.527452 a 2.9185376,2.9185376 0 0 0 -3.050398,1.986716 2.8613975,2.8613975 0 0 0 2.035064,2.984468 c 21.871451,3.481147 46.279038,30.829244 50.366748,35.800434 v 34.3104 c -9.15559,-9.44568 -30.512781,-27.34811 -56.449964,-28.34146 a 2.7471174,2.7471174 0 1 0 -0.509867,5.46786 c 28.477719,1.49004 52.384231,26.37233 56.449971,31.32593 v 25.35699 a 68.568052,68.568052 0 0 0 -23.90212,-8.45233 2.7471174,2.7471174 0 1 0 -0.509867,5.46787 64.831972,64.831972 0 0 1 24.394407,9.45007 v 28.34147 c -3.0504,-0.49668 -4.07013,-2.48779 -5.59533,-6.96229 A 45.114262,45.114262 0 0 0 95.39344,189.39661 C 83.187448,181.44097 82.677583,177.46314 82.677583,176.46978 a 4.5536219,4.5536219 0 0 1 3.050399,-2.48779 9.3270132,9.3270132 0 0 0 6.593082,-6.96229 c 0.509864,-4.47451 -2.540534,-8.94901 -10.170927,-14.42127 -6.593083,-4.97119 -27.462384,-19.39245 -26.44705,-29.33482 a 11.428009,11.428009 0 0 1 8.645729,-7.95565 l 2.544929,-0.99335 c 8.645728,-3.48116 10.680793,-4.47452 11.190657,-6.96231 A 6.2722185,6.2722185 0 0 0 75.583427,101.86686 39.04423,39.04423 0 0 1 64.397164,81.481054 c -1.525199,-6.46122 -1.015334,-8.949009 0,-9.946762 1.5252,-1.986715 5.595329,-1.490037 9.155594,-1.490037 5.085464,0 11.186261,0.496678 14.746526,-2.984468 a 13.115838,13.115838 0 0 0 3.547078,-10.421465 12.610368,12.610368 0 0 1 2.035064,-8.94901 7.546881,7.546881 0 0 1 5.085464,-0.496679 12.016991,12.016991 0 0 0 8.13586,-1.490036 9.709412,9.709412 0 0 0 2.54493,-6.962295 c 0,-11.428008 11.18627,-13.423514 13.22133,-13.920192 a 14.179522,14.179522 0 0 1 13.22132,13.920192 8.1973986,8.1973986 0 0 0 2.54054,6.962295 11.520312,11.520312 0 0 0 8.13586,1.490036 7.001853,7.001853 0 0 1 5.08548,0.496679 12.610368,12.610368 0 0 1 2.03505,8.94901 13.814705,13.814705 0 0 0 3.56026,10.443442 19.172682,19.172682 0 0 0 14.74654,2.984468 15.106949,15.106949 0 0 1 9.15559,1.490036 c 1.01533,0.993359 1.5252,3.481148 0,9.946763 a 41.540811,41.540811 0 0 1 -11.18187,20.363829 5.2744655,5.2744655 0 0 0 -2.54493,5.46787 c 0.50986,2.48779 2.54493,3.48114 11.19066,6.96228 l 2.54053,0.99337 a 12.412575,12.412575 0 0 1 8.64573,7.95565 c 1.01533,9.44569 -19.83199,24.36364 -26.44705,29.33482 -5.08547,4.4745 -8.13586,9.44569 -7.626,13.92459"
   class="cls-1"
   id="Ek" /></svg>