<svg height="511pt" viewBox="-88 0 511 511.99976" width="511pt" xmlns="http://www.w3.org/2000/svg"><path d="m238.457031 176c-5.519531 0-10 4.480469-10 10s4.480469 10 10 10 10-4.480469 10-10-4.480469-10-10-10zm0 0"/><path d="m98.457031 176c-5.519531 0-10 4.480469-10 10s4.480469 10 10 10 10-4.480469 10-10-4.480469-10-10-10zm0 0"/><path d="m294.632812 242.089844c11.796876-10.441406 23.992188-21.242188 30.835938-29.070313 11.320312-12.960937 13.730469-28.890625 6.445312-42.605469-7.59375-14.320312-20.726562-14.464843-33.679687-14.949218-9.421875-.351563-15.617187-2.492188-18.421875-6.359375-5.800781-8-.433594-26.765625 3.878906-41.839844 2.175782-7.613281 4.230469-14.800781 5.308594-21.433594 2.171875-13.402343-1.460938-25.207031-9.976562-32.386719-8.035157-6.777343-19.367188-8.355468-31.082032-4.332031-31.953125 10.96875-35.785156-15.191406-46.871094-29.617187-10.28125-13.347656-23.066406-20.242188-35.988281-19.433594-11.988281.757812-22.726562 8.226562-30.230469 21.03125-15.878906 27.09375-29.207031 34.570312-49.183593 27.585938-10.007813-3.496094-20.09375-2.007813-27.675781 4.085937-8.398438 6.753906-12.527344 18.179687-11.042969 30.566406 1.535156 12.777344 4.964843 24.171875 7.988281 34.226563 3.78125 12.550781 7.042969 23.386718 3.710938 28.390625-2.195313 3.300781-9.234376 7.699219-30.277344 9.894531-10.625 1.109375-19.449219 6.210938-24.203125 14-4.246094 6.953125-4.824219 15.3125-1.632813 23.527344 10.792969 27.867187 29.394532 42.445312 44.347656 54.160156 5.488282 4.300781 10.667969 8.359375 14.808594 12.554688 12.976563 13.148437 9.621094 23.898437-8.3125 28.121093-19.792968 4.65625-23.234375 15.777344-23.523437 21.992188-.875 18.769531 24.335937 37.527343 48.496093 45.652343 31.238282 10.5 37.949219 25.1875 44.441407 39.394532 5.828125 12.75 12.355469 27 35.667969 30.121094v76.632812c0 5.523438 4.476562 10 10 10 5.519531 0 10-4.476562 10-10v-76.691406c22.453124-3.289063 29.398437-17.847656 35.609374-30.882813 6.246094-13.121093 12.707032-26.6875 36.703126-35.546875 13.761718-5.082031 55.632812-20.546875 54.003906-51.148437-.59375-11.644531-17.171875-17.6875-24.265625-19.742188-6.847657-1.992187-11.589844-5.695312-13.015625-10.164062-1.316406-4.121094.160156-9.167969 4.152344-14.207031 3.101562-3.914063 13.210937-12.867188 22.984374-21.527344zm-46.191406 41.816406c3.484375 10.914062 13.136719 19.402344 26.492188 23.289062 3.78125 1.09375 7.546875 2.878907 9.671875 4.183594-1.289063 6.46875-9.109375 17.050782-40.761719 28.742188-31.625 11.671875-40.992188 31.34375-47.832031 45.703125-5.121094 10.757812-8.085938 16.96875-17.550781 19.210937v-74.484375l36.390624-30.238281c4.246094-3.53125 4.828126-9.835938 1.296876-14.082031-3.527344-4.25-9.832032-4.832031-14.078126-1.300781l-23.609374 19.617187v-53.996094l36.390624-30.238281c4.246094-3.53125 4.828126-9.835938 1.296876-14.082031-3.527344-4.25-9.832032-4.832031-14.078126-1.300781l-23.609374 19.617187v-53.996094l36.390624-30.238281c4.246094-3.53125 4.828126-9.835938 1.296876-14.082031-3.527344-4.25-9.832032-4.832031-14.078126-1.300781l-23.609374 19.617187v-48.546875c0-5.523438-4.480469-10-10-10-5.523438 0-10 4.476562-10 10v48.75l-23.589844-19.714844c-4.238282-3.539062-10.542969-2.976562-14.085938 1.261719-3.539062 4.238281-2.976562 10.542969 1.261719 14.085937l36.414063 30.433594v53.9375l-23.558594-19.6875c-4.242188-3.542968-10.546875-2.976562-14.085938 1.261719-3.542968 4.238281-2.976562 10.542969 1.261719 14.085937l36.382813 30.402344v53.933594l-23.589844-19.710938c-4.238282-3.542968-10.542969-2.980468-14.085938 1.257813-3.539062 4.238281-2.976562 10.542969 1.261719 14.085937l36.414063 30.433594v74.394532c-10.011719-1.960938-12.632813-7.675782-17.476563-18.277344-7.09375-15.519532-16.804687-36.777344-56.257813-50.039063-21.585937-7.257812-35.046874-21.617187-34.898437-25.675781.429687-.582031 2.609375-2.242188 8.132813-3.542969 32.671874-7.6875 42.378906-36.898437 17.964843-61.640625-5.035156-5.101562-10.707031-9.542968-16.707031-14.246094-14.371094-11.257812-29.226562-22.902343-38.039062-45.648437-1.371094-3.53125-.296876-5.292969.058593-5.875 1.433594-2.351563 4.964844-4.085937 9.207031-4.527344 24.082032-2.511719 37.917969-8.28125 44.855469-18.707031 8.542969-12.835938 3.804688-28.574219-1.210937-45.238281-2.792969-9.273438-5.957032-19.785157-7.28125-30.84375-.648438-5.40625.773437-10.230469 3.714844-12.59375 2.175781-1.75 5.050781-2.015625 8.546874-.796875 33.644532 11.769531 55.21875-5.949219 73.035157-36.351563 2.855469-4.871093 7.644531-10.765625 14.238281-11.183593 5.992188-.375 12.875 3.878906 18.875 11.671874 7.796875 10.140626 20.566406 53.035157 69.214844 36.332032 2.882812-.988282 8.234375-2.210938 11.699218.707031 2.960938 2.5 4.128907 7.691406 3.125 13.894531-.886718 5.472656-2.785156 12.109375-4.796874 19.136719-5.789063 20.246094-12.355469 43.195313-.839844 59.078125 6.59375 9.097656 17.984375 14.011719 33.867187 14.609375 9.796875.363281 14.429688-.054687 16.757813 4.335937 4.507812 8.480469-.472656 16.214844-3.835938 20.066407-6 6.867187-18.238281 17.703125-29.035156 27.261719-11.378906 10.078124-21.207031 18.785156-25.402344 24.082031-8.261718 10.421875-10.933594 22.039062-7.53125 32.707031zm0 0"/></svg>