<?xml version="1.0" encoding="UTF-8" standalone="no"?>
<svg
   xmlns:dc="http://purl.org/dc/elements/1.1/"
   xmlns:cc="http://creativecommons.org/ns#"
   xmlns:rdf="http://www.w3.org/1999/02/22-rdf-syntax-ns#"
   xmlns:svg="http://www.w3.org/2000/svg"
   xmlns="http://www.w3.org/2000/svg"
   xml:space="preserve"
   style="enable-background:new 0 0 246.027 246.027;"
   viewBox="0 0 246.027 246.027"
   y="0px"
   x="0px"
   id="Capa_1"
   version="1.1"><metadata
   id="metadata39"><rdf:RDF><cc:Work
       rdf:about=""><dc:format>image/svg+xml</dc:format><dc:type
         rdf:resource="http://purl.org/dc/dcmitype/StillImage" /><dc:title></dc:title></cc:Work></rdf:RDF></metadata><defs
   id="defs37" />

<g
   id="g4">
</g>
<g
   id="g6">
</g>
<g
   id="g8">
</g>
<g
   id="g10">
</g>
<g
   id="g12">
</g>
<g
   id="g14">
</g>
<g
   id="g16">
</g>
<g
   id="g18">
</g>
<g
   id="g20">
</g>
<g
   id="g22">
</g>
<g
   id="g24">
</g>
<g
   id="g26">
</g>
<g
   id="g28">
</g>
<g
   id="g30">
</g>
<g
   id="g32">
</g>
<path
   style="stroke:#000000;stroke-width:9.21501064;stroke-miterlimit:4;stroke-dasharray:none;stroke-opacity:1"
   id="path4"
   d="M 4.0627729,-34.325403"
   class="st0" /><path
   style="fill:#000000;fill-opacity:1;stroke:none;stroke-width:4.520329"
   d="m 198.95112,140.46121 a 12.069279,12.069279 0 0 0 -10.17073,-4.87743 c -12.88294,2.78904 -19.66795,0 -29.16065,-12.54391 4.06829,0 6.78049,-0.69613 10.17074,-0.69613 8.1366,0.69613 14.24356,-3.48518 14.91709,-10.45101 a 11.034123,11.034123 0 0 0 -8.1366,-12.543908 c -7.45853,-1.392269 -12.20488,2.789038 -14.91708,9.754868 a 10.939196,10.939196 0 0 1 -6.10245,6.26969 c -6.78049,0.69614 -14.24355,0 -22.38014,0 4.06829,-7.68456 7.45854,-13.93617 10.84879,-20.210387 4.06829,-6.970343 6.78049,-15.332954 16.95576,-17.421345 7.45853,-1.392257 10.84879,-11.847784 8.81463,-18.818131 a 13.520304,13.520304 0 0 0 -16.95575,-9.754866 17.317381,17.317381 0 0 0 -10.84879,24.409773 c 4.06829,9.754874 -1.3561,14.636825 -6.7805,21.60265 a 122.04888,122.04888 0 0 1 -8.13659,-27.180736 c -1.3561,-8.362609 -2.03415,-17.421344 6.7805,-24.409773 6.78049,-5.573566 7.45854,-14.636825 4.74634,-22.999434 a 11.865864,11.865864 0 0 0 -16.2777,-6.965827 c -8.1366,4.181304 -12.88294,21.602652 -7.45855,28.573 6.7805,7.684559 4.0683,15.332956 2.03415,24.409772 C 112.14725,62.426772 106.72285,60.338379 104.6887,56.15256 99.94236,44.304777 95.87406,40.819604 84.34724,42.216385 77.566747,42.912516 71.464302,45.701559 70.786253,53.368037 a 17.484633,17.484633 0 0 0 9.492687,19.514256 c 4.0683,2.088393 10.84877,-0.696131 16.27317,-1.392262 2.03415,-0.696131 4.0683,-3.485174 6.10245,-2.789043 7.45854,0 18.98538,9.754876 21.02405,17.421352 1.35609,5.573557 4.06829,10.45552 5.42439,15.33295 a 4.972362,4.972362 0 0 1 0.67805,4.1813 c -4.0683,8.36262 -8.81464,16.72523 -13.56099,25.76588 a 3.9914505,3.9914505 0 0 1 -2.71219,-0.69612 c -0.67805,-7.68456 -2.7122,-16.02909 -1.3561,-23.69557 1.3561,-9.754878 -1.3561,-16.725221 -10.17074,-19.514264 a 12.453507,12.453507 0 0 0 -16.27317,9.040664 15.635818,15.635818 0 0 0 12.20487,19.51425 15.513769,15.513769 0 0 1 6.78049,4.87744 10.337993,10.337993 0 0 0 -1.3561,2.78904 66.90087,66.90087 0 0 1 -11.52684,2.09292 c -7.45852,0 -14.917063,0.69612 -17.62926,-10.45553 -1.356099,-6.26969 -8.136592,-7.68456 -14.243557,-5.57356 a 14.28424,14.28424 0 0 0 -7.458543,18.122 11.300823,11.300823 0 0 0 14.239037,6.96583 37.518732,37.518732 0 0 1 8.136592,-2.78905 c 10.170741,0 19.667931,1.39226 30.516721,2.08839 4.0683,10.45552 -0.67805,27.18075 -12.20489,39.02852 a 242.7055,242.7055 0 0 1 -8.81462,-23.69556 13.610711,13.610711 0 0 0 -18.985381,-7.68456 15.821151,15.821151 0 0 0 -7.472104,11.89298 c -0.67805,6.97036 7.458542,11.15166 15.599655,10.45101 2.034149,0 4.068296,-0.69614 5.424395,-0.69614 8.136595,13.93618 10.848775,26.48461 2.034145,40.42079 a 101.53563,101.53563 0 0 0 -9.492689,23.69557 56.888341,56.888341 0 0 0 -2.034147,10.45552 c 0.678049,0 1.356099,0.69613 2.034147,0.69613 a 44.620168,44.620168 0 0 0 6.780494,-9.04066 c 4.068295,-11.15166 9.492695,-18.81814 23.053665,-18.11748 a 157.10404,157.10404 0 0 0 25.09234,-4.1813 19.234,19.234 0 0 0 14.24356,-15.33296 12.159685,12.159685 0 0 0 -9.49269,-13.24004 11.752856,11.752856 0 0 0 -14.91709,9.04065 c -3.39024,14.63683 -14.91708,11.84779 -24.40978,15.33295 a 345.94983,345.94983 0 0 1 16.27319,-36.23947 17.30834,17.30834 0 0 1 27.80454,-4.1813 14.239037,14.239037 0 0 0 19.66795,0 c 6.7805,-4.87744 9.4927,-14.63683 6.10244,-20.21039 -4.74633,-9.75488 -18.98537,-11.15165 -23.05367,-2.08839 -4.74634,11.15164 -12.20489,8.3626 -21.02405,6.97034 2.7122,-4.87743 4.0683,-9.04066 6.78049,-13.24004 2.03415,-3.48518 4.0683,-8.36262 6.7805,-8.36262 6.78049,-0.69612 15.59513,-2.0929 21.02405,1.39227 10.84879,6.97035 19.66795,17.42135 29.83417,25.76588 a 17.145608,17.145608 0 0 0 12.88294,2.09291 9.6283009,9.6283009 0 0 0 4.06829,-14.63682 M 148.77547,65.871263 a 23.704606,23.704606 0 0 1 8.1366,-8.362605 c 0.67804,-0.69613 4.74633,3.48517 8.81464,6.970344 a 80.163515,80.163515 0 0 1 -11.52684,6.970347 8.6202675,8.6202675 0 0 1 -5.4244,-5.573566 M 94.53152,56.835129 a 103.29404,103.29404 0 0 1 -8.13657,9.754866 C 84.3608,63.104821 81.6486,60.320298 79.614456,56.835129 82.32665,54.742217 85.7169,52.653825 89.10713,49.864782 a 76.262471,76.262471 0 0 1 5.42439,6.970347 m 25.09235,-18.81813 c 2.03415,-6.269695 4.0683,-11.847782 6.10244,-18.117478 6.7805,9.754869 4.74635,15.332956 -6.10244,18.117478 M 96.57019,109.09917 c -0.67805,-3.48517 -1.3561,-7.68456 -2.03415,-11.151652 2.03415,0 4.74635,-0.696134 6.7805,-0.696134 0.67805,3.485176 0.67805,7.684556 1.3561,11.151656 a 18.293772,18.293772 0 0 0 -6.10245,0.69613 m 52.88785,34.84721 c 1.3561,1.39227 4.74634,3.48518 4.0683,4.87745 -0.67805,5.57355 -4.0683,8.3626 -13.56099,7.68455 4.0683,-5.57356 6.7805,-9.04066 9.49269,-12.54392"
   class="cls-1"
   id="Grabo" /></svg>