<?xml version="1.0" encoding="UTF-8" standalone="no"?>
<svg
   xmlns:dc="http://purl.org/dc/elements/1.1/"
   xmlns:cc="http://creativecommons.org/ns#"
   xmlns:rdf="http://www.w3.org/1999/02/22-rdf-syntax-ns#"
   xmlns:svg="http://www.w3.org/2000/svg"
   xmlns="http://www.w3.org/2000/svg"
   version="1.1"
   id="Capa_1"
   x="0px"
   y="0px"
   viewBox="0 0 246.027 246.027"
   style="enable-background:new 0 0 246.027 246.027;"
   xml:space="preserve"><metadata
   id="metadata39"><rdf:RDF><cc:Work
       rdf:about=""><dc:format>image/svg+xml</dc:format><dc:type
         rdf:resource="http://purl.org/dc/dcmitype/StillImage" /><dc:title></dc:title></cc:Work></rdf:RDF></metadata><defs
   id="defs37" />

<g
   id="g4">
</g>
<g
   id="g6">
</g>
<g
   id="g8">
</g>
<g
   id="g10">
</g>
<g
   id="g12">
</g>
<g
   id="g14">
</g>
<g
   id="g16">
</g>
<g
   id="g18">
</g>
<g
   id="g20">
</g>
<g
   id="g22">
</g>
<g
   id="g24">
</g>
<g
   id="g26">
</g>
<g
   id="g28">
</g>
<g
   id="g30">
</g>
<g
   id="g32">
</g>
<path
   class="st0"
   d="M 4.0627729,-34.325403"
   id="path4"
   style="stroke:#000000;stroke-width:9.21501064;stroke-miterlimit:4;stroke-dasharray:none;stroke-opacity:1" /><g
   transform="matrix(0.46541239,0,0,0.4235188,-239.23657,54.591723)"
   id="g902"><path
     style="fill:none;stroke:#000000;stroke-width:14.18989182;stroke-linecap:butt;stroke-linejoin:miter;stroke-miterlimit:4;stroke-dasharray:none;stroke-opacity:1"
     d="m 815.76001,-6.3996648 c -3.69654,-0.8667929 -29.65671,-10.1653062 -43.87879,-16.6049102 -6.27537,-2.841418 -11.64746,-11.42999 -18.20356,-9.682109 -4.95075,1.319887 -8.93801,8.290286 -6.90524,12.817051 2.60007,5.790072 12.71965,4.037557 19.00574,6.261151 8.42841,2.981401 16.2137,8.2757105 25.07359,9.4885187 8.32311,1.1393315 24.90826,-2.2797015 24.90826,-2.2797015 z"
     id="path842" /><path
     id="path844"
     d="m 800.48482,26.738262 c -3.62269,1.136578 -30.69962,6.35504 -46.21874,8.056006 -6.84767,0.750534 -15.84484,-3.904973 -20.59691,0.938105 -3.58845,3.657181 -3.47008,11.686549 0.58469,14.547071 5.18637,3.658818 13.00282,-3.003033 19.54508,-4.29073 8.77187,-1.72655 18.16819,-1.13508 26.4107,-4.60343 7.74315,-3.258221 20.27518,-14.647022 20.27518,-14.647022 z"
     style="fill:none;stroke:#000000;stroke-width:14.18989182;stroke-linecap:butt;stroke-linejoin:miter;stroke-miterlimit:4;stroke-dasharray:none;stroke-opacity:1" /><path
     style="fill:none;stroke:#000000;stroke-width:14.18989182;stroke-linecap:butt;stroke-linejoin:miter;stroke-miterlimit:4;stroke-dasharray:none;stroke-opacity:1"
     d="m 788.24992,101.62455 c -3.74657,-0.61554 -30.27471,-8.142208 -44.89868,-13.608057 -6.4527,-2.411758 -12.39175,-10.6185 -18.81505,-8.432475 -4.85047,1.650746 -8.3586,8.874166 -6.02518,13.253542 2.98462,5.601546 12.96298,3.170591 19.38471,4.965207 8.61028,2.406233 16.73488,7.163473 25.65639,7.776023 8.38099,0.57546 24.69781,-3.95424 24.69781,-3.95424 z"
     id="path846" /><path
     id="path848"
     d="m 780.84901,141.15153 c -3.65448,-1.02976 -29.17705,-11.46966 -43.09977,-18.53323 -6.14327,-3.11674 -11.12946,-11.93495 -17.75658,-10.47934 -5.00437,1.09917 -9.29664,7.88601 -7.46649,12.49842 2.34092,5.89961 12.52823,4.5973 18.70959,7.09731 8.288,3.352 15.83101,8.98614 24.62844,10.59041 8.26444,1.50708 24.98481,-1.17357 24.98481,-1.17357 z"
     style="fill:none;stroke:#000000;stroke-width:14.18989182;stroke-linecap:butt;stroke-linejoin:miter;stroke-miterlimit:4;stroke-dasharray:none;stroke-opacity:1" /><path
     style="fill:none;stroke:#000000;stroke-width:14.18989182;stroke-linecap:butt;stroke-linejoin:miter;stroke-miterlimit:4;stroke-dasharray:none;stroke-opacity:1"
     d="m 771.13663,184.69751 c -3.71291,-0.79368 -29.85151,-9.57812 -44.1979,-15.73582 -6.33022,-2.71704 -11.87074,-11.19792 -18.39107,-9.32101 -4.92374,1.41732 -8.77268,8.46504 -6.65098,12.95081 2.71382,5.73764 12.79685,3.78577 19.12559,5.8849 8.4856,2.8145 16.37385,7.95416 25.25594,8.99189 8.34398,0.97488 24.85842,-2.77077 24.85842,-2.77077 z"
     id="path850" /><path
     id="path852"
     d="m 743.39723,187.71252 c -3.52861,1.40164 -30.14494,8.61025 -45.49555,11.45541 -6.77332,1.25539 -16.09045,-2.72129 -20.47095,2.46029 -3.30787,3.91279 -2.59542,11.91136 1.65999,14.46387 5.44299,3.26483 12.74483,-3.95738 19.17381,-5.72585 8.61999,-2.37118 18.03431,-2.47693 25.99745,-6.54595 7.4807,-3.82249 19.13525,-16.10777 19.13525,-16.10777 z"
     style="fill:none;stroke:#000000;stroke-width:14.18989182;stroke-linecap:butt;stroke-linejoin:miter;stroke-miterlimit:4;stroke-dasharray:none;stroke-opacity:1" /><path
     style="fill:none;stroke:#000000;stroke-width:14.18989182;stroke-linecap:butt;stroke-linejoin:miter;stroke-miterlimit:4;stroke-dasharray:none;stroke-opacity:1"
     d="m 768.68513,292.29136 c -3.4108,-1.66799 -26.64937,-16.51256 -39.08092,-25.95676 -5.4853,-4.16718 -8.81054,-13.73617 -15.59123,-13.49172 -5.12034,0.1846 -10.55933,6.0924 -9.58535,10.95811 1.2458,6.22361 11.50157,6.76796 17.13487,10.3352 7.55315,4.78296 13.96442,11.67762 22.33195,14.83242 7.86059,2.96369 24.79068,3.32275 24.79068,3.32275 z"
     id="path854" /><path
     id="path856"
     d="m 771.13663,184.69751 c -2.7026,2.66677 -24.40021,19.68462 -37.42579,28.29104 -5.74742,3.7975 -15.87767,3.76924 -17.89058,10.24888 -1.52002,4.89301 2.25535,11.98041 7.16927,12.67126 6.28525,0.88363 10.19237,-8.61435 15.42262,-12.75001 7.01274,-5.54512 15.6404,-9.31395 21.38615,-16.16631 5.39767,-6.4372 11.33833,-22.29486 11.33833,-22.29486 z"
     style="fill:none;stroke:#000000;stroke-width:14.18989182;stroke-linecap:butt;stroke-linejoin:miter;stroke-miterlimit:4;stroke-dasharray:none;stroke-opacity:1" /><path
     id="path858"
     d="m 812.56985,-16.914709 c 3.65291,-1.035272 30.86464,-5.497865 46.42509,-6.766103 6.86591,-0.5596 15.72999,4.344594 20.61505,-0.364306 3.68888,-3.555861 3.79409,-11.585409 -0.17947,-14.557711 -5.08248,-3.801795 -13.08138,2.639856 -19.65695,3.744913 -8.81655,1.481666 -18.19275,0.628821 -26.52863,3.86635 -7.83085,3.04138 -20.67509,14.076857 -20.67509,14.076857 z"
     style="fill:none;stroke:#000000;stroke-width:14.18989182;stroke-linecap:butt;stroke-linejoin:miter;stroke-miterlimit:4;stroke-dasharray:none;stroke-opacity:1" /><path
     style="fill:none;stroke:#000000;stroke-width:14.18989182;stroke-linecap:butt;stroke-linejoin:miter;stroke-miterlimit:4;stroke-dasharray:none;stroke-opacity:1"
     d="m 788.24992,101.62455 c 3.53039,-1.39714 30.15588,-8.571816 45.51011,-11.397401 6.77492,-1.246762 16.08696,2.741798 20.47407,-2.434192 3.31285,-3.908574 2.6106,-11.908049 -1.64154,-14.465976 -5.43883,-3.271775 -12.74987,3.941122 -19.1811,5.701403 -8.623,2.360191 -18.03746,2.453938 -26.00577,6.512798 -7.48557,3.812955 -19.15577,16.083368 -19.15577,16.083368 z"
     id="path860" /><path
     id="path862"
     d="m 806.61571,144.22424 c 3.62397,1.13248 28.84177,12.28846 42.5596,19.74212 6.05287,3.28886 10.78822,12.24427 17.45378,10.97625 5.0334,-0.95752 9.51549,-7.62053 7.81622,-12.28275 -2.1735,-5.96331 -12.39349,-4.94901 -18.50185,-7.62245 -8.1901,-3.58457 -15.57111,-9.42931 -24.31977,-11.2812 -8.21862,-1.73971 -25.00798,0.46803 -25.00798,0.46803 z"
     style="fill:none;stroke:#000000;stroke-width:14.18989182;stroke-linecap:butt;stroke-linejoin:miter;stroke-miterlimit:4;stroke-dasharray:none;stroke-opacity:1" /><path
     style="fill:none;stroke:#000000;stroke-width:14.18989182;stroke-linecap:butt;stroke-linejoin:miter;stroke-miterlimit:4;stroke-dasharray:none;stroke-opacity:1"
     d="m 779.48688,209.50606 c 3.61041,-1.17498 30.63041,-6.68064 46.13059,-8.5463 6.83931,-0.8232 15.88542,3.7365 20.58579,-1.15676 3.54942,-3.69507 3.3458,-11.72273 -0.73911,-14.54004 -5.22493,-3.60353 -12.97021,3.14094 -19.49843,4.49802 -8.75305,1.8196 -18.15511,1.32793 -26.36033,4.88361 -7.70811,3.34025 -20.11851,14.86147 -20.11851,14.86147 z"
     id="path864" /><path
     id="path866"
     d="m 761.95207,246.85993 c 3.79669,-0.0285 31.21681,2.8921 46.55571,5.79973 6.76815,1.28297 14.01247,8.36411 19.97222,5.12083 4.50043,-2.44912 6.73324,-10.1627 3.69119,-14.08312 -3.89101,-5.01451 -13.31284,-0.92717 -19.94586,-1.60719 -8.89356,-0.91175 -17.70704,-4.22283 -26.60325,-3.31412 -8.35725,0.85364 -23.67001,8.08387 -23.67001,8.08387 z"
     style="fill:none;stroke:#000000;stroke-width:14.18989182;stroke-linecap:butt;stroke-linejoin:miter;stroke-miterlimit:4;stroke-dasharray:none;stroke-opacity:1" /><path
     style="fill:none;stroke:#000000;stroke-width:14.18989182;stroke-linecap:butt;stroke-linejoin:miter;stroke-miterlimit:4;stroke-dasharray:none;stroke-opacity:1"
     d="m 753.24767,291.93821 c 3.50396,1.46216 27.58435,14.89823 40.55562,23.58629 5.72345,3.83353 9.61196,13.1878 16.36611,12.54047 5.10029,-0.48883 10.17826,-6.70967 8.9166,-11.50884 -1.61378,-6.13848 -11.88378,-6.07186 -17.71928,-9.29773 -7.82426,-4.32524 -14.63426,-10.82634 -23.17463,-13.47787 -8.02295,-2.4909 -24.94442,-1.84232 -24.94442,-1.84232 z"
     id="path868" /><path
     id="path870"
     d="m 800.48482,26.738262 c 3.66919,0.976115 29.34198,11.040928 43.36671,17.899746 6.18828,3.026401 11.30314,11.770598 17.90821,10.218052 4.98774,-1.172385 9.1801,-8.021392 7.28256,-12.606488 -2.42711,-5.864686 -12.59424,-4.413245 -18.81157,-6.822413 -8.33621,-3.230206 -15.96098,-8.753221 -24.78096,-10.228408 -8.28564,-1.385833 -24.96495,1.539511 -24.96495,1.539511 z"
     style="fill:none;stroke:#000000;stroke-width:14.18989182;stroke-linecap:butt;stroke-linejoin:miter;stroke-miterlimit:4;stroke-dasharray:none;stroke-opacity:1" /><path
     style="fill:none;stroke:#000000;stroke-width:14.18989182;stroke-linecap:butt;stroke-linejoin:miter;stroke-miterlimit:4;stroke-dasharray:none;stroke-opacity:1"
     d="m 812.56985,-16.914709 c 1.99603,-3.2298 19.05867,-24.89219 29.6821,-36.33242 4.68751,-5.0479 14.53764,-7.41385 14.96266,-14.18562 0.32095,-5.1136 -5.02203,-11.10837 -9.96005,-10.61868 -6.31608,0.62635 -7.86856,10.77854 -11.97364,16.03284 -5.50409,7.04498 -12.99706,12.7455 -16.96119,20.76138 -3.72398,7.53022 -5.74988,24.3425 -5.74988,24.3425 z"
     id="path872" /><path
     id="path874"
     d="m 812.56985,-16.914709 c -1.62523,-3.97662 -17.45636,-32.347753 -27.98022,-48.076711 -4.64357,-6.94027 -17.08742,-13.73276 -15.45059,-20.331357 1.23601,-4.98283 10.35796,-8.17913 16.82323,-5.43232 8.26952,3.51337 7.04357,13.829262 10.83848,20.695285 5.08822,9.205978 13.28291,18.060771 15.98868,27.472397 2.54187,8.841415 -0.21958,25.672706 -0.21958,25.672706 z"
     style="fill:none;stroke:#000000;stroke-width:16.90376663;stroke-linecap:butt;stroke-linejoin:miter;stroke-miterlimit:4;stroke-dasharray:none;stroke-opacity:1" /><path
     style="fill:none;stroke:#000000;stroke-width:17.60000038;stroke-linecap:round;stroke-linejoin:miter;stroke-miterlimit:4;stroke-dasharray:none;stroke-opacity:1"
     d="M 817.31001,-45.86944 742.25092,419.07988"
     id="path876" /><path
     style="fill:none;stroke:#000000;stroke-width:14.18989182;stroke-linecap:butt;stroke-linejoin:miter;stroke-miterlimit:4;stroke-dasharray:none;stroke-opacity:1"
     d="m 824.93669,142.44102 c 3.78016,-0.35512 31.3499,0.195 46.8821,1.77186 6.85345,0.69578 14.68027,7.12725 20.33881,3.38312 4.27297,-2.82732 5.83371,-10.70443 2.46557,-14.34853 -4.3081,-4.66105 -13.34324,0.22191 -20.01017,0.11523 -8.93904,-0.14305 -18.00474,-2.68338 -26.78976,-1.01248 -8.25279,1.56966 -22.88655,10.0908 -22.88655,10.0908 z"
     id="path878" /><path
     id="path880"
     d="m 795.03131,142.81626 c 3.59886,-1.21644 28.47217,-13.1223 41.93083,-21.05397 5.93851,-3.49978 10.25369,-12.94314 17.04669,-11.65997 5.12964,0.96897 9.99849,7.93617 8.52506,12.8468 -1.88464,6.28102 -12.25184,5.29053 -18.27825,8.14416 -8.08022,3.82616 -15.22674,10.0209 -23.96047,12.03082 -8.2046,1.88816 -25.26386,-0.30784 -25.26386,-0.30784 z"
     style="fill:none;stroke:#000000;stroke-width:14.61428738;stroke-linecap:butt;stroke-linejoin:miter;stroke-miterlimit:4;stroke-dasharray:none;stroke-opacity:1" /></g></svg>