<?xml version="1.0" encoding="UTF-8" standalone="no"?>
<svg
   xmlns:dc="http://purl.org/dc/elements/1.1/"
   xmlns:cc="http://creativecommons.org/ns#"
   xmlns:rdf="http://www.w3.org/1999/02/22-rdf-syntax-ns#"
   xmlns:svg="http://www.w3.org/2000/svg"
   xmlns="http://www.w3.org/2000/svg"
   xml:space="preserve"
   style="enable-background:new 0 0 246.027 246.027;"
   viewBox="0 0 246.027 246.027"
   y="0px"
   x="0px"
   id="Capa_1"
   version="1.1"><metadata
   id="metadata39"><rdf:RDF><cc:Work
       rdf:about=""><dc:format>image/svg+xml</dc:format><dc:type
         rdf:resource="http://purl.org/dc/dcmitype/StillImage" /><dc:title></dc:title></cc:Work></rdf:RDF></metadata><defs
   id="defs37" />

<g
   id="g4">
</g>
<g
   id="g6">
</g>
<g
   id="g8">
</g>
<g
   id="g10">
</g>
<g
   id="g12">
</g>
<g
   id="g14">
</g>
<g
   id="g16">
</g>
<g
   id="g18">
</g>
<g
   id="g20">
</g>
<g
   id="g22">
</g>
<g
   id="g24">
</g>
<g
   id="g26">
</g>
<g
   id="g28">
</g>
<g
   id="g30">
</g>
<g
   id="g32">
</g>
<path
   style="stroke:#000000;stroke-width:9.21501064;stroke-miterlimit:4;stroke-dasharray:none;stroke-opacity:1"
   id="path4"
   d="M 4.0627729,-34.325403"
   class="st0" /><path
   style="fill:#000000;fill-opacity:1;stroke:none;stroke-width:4.54608774"
   d="m 152.08343,12.672017 a 131.21827,131.21827 0 0 0 -9.89228,21.743939 c -6.0463,15.761295 -8.24661,34.236597 -10.99698,52.734626 -1.10016,9.237651 -2.72766,18.475298 -4.39607,27.731138 a 584.07681,584.07681 0 0 0 -3.30046,120.64408 c -6.0463,1.6275 -12.0926,2.72765 -18.13889,4.34606 a 697.97906,697.97906 0 0 1 10.99244,-125.53567 438.84295,438.84295 0 0 1 12.64267,-55.975984 c 2.72764,-8.696662 5.49621,-17.388781 8.79668,-25.003489 a 45.147198,45.147198 0 0 1 14.29289,-20.6847 M 50.942075,122.99194 a 20.70743,20.70743 0 0 1 7.696527,10.32416 190.57201,190.57201 0 0 1 12.092594,41.3012 260.61812,260.61812 0 0 1 7.146449,64.12713 H 68.526343 A 232.00505,232.00505 0 0 0 64.680352,176.2539 229.60017,229.60017 0 0 0 50.942075,122.99194 M 74.581732,64.301938 c 6.046296,3.259551 9.896832,10.324172 13.183654,16.847805 a 145.70667,145.70667 0 0 1 7.696527,21.739397 133.02308,133.02308 0 0 1 5.487127,-15.76584 31.472566,31.472566 0 0 1 8.2466,-13.042721 321.83575,321.83575 0 0 0 -9.34675,34.782121 19.093569,19.093569 0 0 0 -1.10015,5.4553 13.692817,13.692817 0 0 0 1.10015,3.80507 415.23966,415.23966 0 0 1 9.90592,55.40318 372.3246,372.3246 0 0 1 2.20031,65.75461 c -5.49622,0 -10.99244,-0.54099 -16.493207,-1.08651 6.046297,-29.345 4.396067,-67.38666 -0.550076,-96.73166 a 394.08672,394.08672 0 0 0 -5.496221,96.73166 H 78.423175 A 519.61784,519.61784 0 0 1 90.493039,128.97459 c 0.550077,-2.17304 1.100153,-4.89159 1.650229,-6.5191 0,-1.08651 -0.550076,-2.72765 -0.550076,-3.80507 A 208.66543,208.66543 0 0 0 85.546895,92.019435 C 81.700905,82.236264 77.850369,73.544145 74.554455,64.28831 m 60.490245,57.61711 c 0,-0.54553 0.55008,-0.54553 0,0 a 18.63896,18.63896 0 0 1 7.69652,10.32417 82.938827,82.938827 0 0 1 4.39607,10.32416 l 1.65024,-1.63204 a 47.524802,47.524802 0 0 1 34.09565,-19.02084 263.58672,263.58672 0 0 1 11.54252,-36.955143 22.121263,22.121263 0 0 1 6.59636,-9.237651 c -3.30045,11.956213 -7.69651,23.912426 -9.89228,36.409614 -2.72765,13.04274 -4.94615,26.08546 -6.59637,39.66917 a 375.96147,375.96147 0 0 0 -3.84599,86.94847 h -11.01063 a 541.37996,541.37996 0 0 1 13.74283,-116.83446 c -15.39305,4.8916 -25.28534,16.84781 -31.88172,31.51803 a 324.36337,324.36337 0 0 1 12.0926,84.23446 h -10.456 a 271.61966,271.61966 0 0 0 -6.0463,-75.01044 c -7.13735,20.67106 -9.35585,46.21098 -9.35585,73.92848 H 120.7518 c 1.65023,-35.32311 8.79669,-65.75917 23.08958,-89.10333 a 174.79707,174.79707 0 0 0 -8.79668,-25.56265"
   class="cls-1"
   id="Gras" /></svg>