<?xml version="1.0" encoding="UTF-8" standalone="no"?>
<svg
   xmlns:dc="http://purl.org/dc/elements/1.1/"
   xmlns:cc="http://creativecommons.org/ns#"
   xmlns:rdf="http://www.w3.org/1999/02/22-rdf-syntax-ns#"
   xmlns:svg="http://www.w3.org/2000/svg"
   xmlns="http://www.w3.org/2000/svg"
   version="1.1"
   id="Capa_1"
   x="0px"
   y="0px"
   viewBox="0 0 246.027 246.027"
   style="enable-background:new 0 0 246.027 246.027;"
   xml:space="preserve"><metadata
   id="metadata39"><rdf:RDF><cc:Work
       rdf:about=""><dc:format>image/svg+xml</dc:format><dc:type
         rdf:resource="http://purl.org/dc/dcmitype/StillImage" /><dc:title></dc:title></cc:Work></rdf:RDF></metadata><defs
   id="defs37" />

<g
   id="g4">
</g>
<g
   id="g6">
</g>
<g
   id="g8">
</g>
<g
   id="g10">
</g>
<g
   id="g12">
</g>
<g
   id="g14">
</g>
<g
   id="g16">
</g>
<g
   id="g18">
</g>
<g
   id="g20">
</g>
<g
   id="g22">
</g>
<g
   id="g24">
</g>
<g
   id="g26">
</g>
<g
   id="g28">
</g>
<g
   id="g30">
</g>
<g
   id="g32">
</g>
<path
   class="st0"
   d="M 4.0627729,-34.325403"
   id="path4"
   style="stroke:#000000;stroke-width:9.21501064;stroke-miterlimit:4;stroke-dasharray:none;stroke-opacity:1" /><g
   transform="translate(-202.24253,5.2124363)"
   id="g864"><path
     style="fill:none;stroke:#000000;stroke-width:7.5;stroke-linecap:round;stroke-linejoin:miter;stroke-miterlimit:4;stroke-dasharray:none;stroke-opacity:1"
     d="m 325.68784,27.726194 -2.51679,57.757761 -3.12746,61.506745 6.25492,47.95442 9.38239,26.06218"
     id="path840" /><path
     style="fill:none;stroke:#000000;stroke-width:7.5;stroke-linecap:butt;stroke-linejoin:miter;stroke-miterlimit:4;stroke-dasharray:none;stroke-opacity:1"
     d="m 326.29851,194.94512 18.24353,-0.52125 20.3285,-9.38238 18.14325,-13.03109 2.31173,-8.0978 4.56471,-4.93329 -0.0262,-8.0978 4.71739,-7.01827 -1.04249,-5.21243 3.64871,-12.50985 -2.11118,-3.1907 3.17986,-8.86114 -6.28112,-8.27666 V 88.611417 l -12.50985,-10.946116 -9.90363,-16.158553 -17.20104,-4.691193 -7.81865,-9.903628 -10.94612,-10.424873 -6.25492,-20.849745 -7.81866,15.637308 -4.69118,7.818655 -16.15856,10.424873 -4.69119,7.818654 -7.29741,0.521244 -9.31916,12.014797 -6.8394,1.537537 -6.03901,8.239617 -5.94959,2.7065 -1.41106,21.791956 -3.00099,2.8962 1.28459,20.92066 0.78186,10.42487 5.23864,20.67856 c 0.40795,0 2.84064,1.4743 -0.0262,4.08052 l 21.63161,24.49845 17.60217,5.29419 25.66105,2.00322"
     id="path842" /><path
     style="fill:none;stroke:#000000;stroke-width:3.61614943;stroke-linecap:butt;stroke-linejoin:miter;stroke-miterlimit:4;stroke-dasharray:none;stroke-opacity:1"
     d="m 307.07075,46.924521 15.58857,29.023951 21.82398,-29.02395"
     id="path844" /><path
     style="fill:none;stroke:#000000;stroke-width:3.7521534;stroke-linecap:butt;stroke-linejoin:miter;stroke-miterlimit:4;stroke-dasharray:none;stroke-opacity:1"
     d="M 352.23657,56.833829 322.13293,104.96267 294.10539,57.43544"
     id="path846" /><path
     style="fill:none;stroke:#000000;stroke-width:3.5;stroke-linecap:butt;stroke-linejoin:miter;stroke-miterlimit:4;stroke-dasharray:none;stroke-opacity:1"
     d="m 270.52543,71.410377 49.51816,60.464263 51.08187,-63.070481"
     id="path848" /><path
     style="fill:none;stroke:#000000;stroke-width:3.55188918;stroke-linecap:butt;stroke-linejoin:miter;stroke-miterlimit:4;stroke-dasharray:none;stroke-opacity:1"
     d="M 386.7397,86.019181 318.48185,154.75655 261.1661,88.167224"
     id="path850" /><path
     style="fill:none;stroke:#000000;stroke-width:3.5;stroke-linecap:butt;stroke-linejoin:miter;stroke-miterlimit:4;stroke-dasharray:none;stroke-opacity:1"
     d="m 254.12478,107.04465 69.04627,69.65694 71.90541,-53.75133"
     id="path852" /><path
     style="fill:none;stroke:#000000;stroke-width:3.5;stroke-linecap:butt;stroke-linejoin:miter;stroke-miterlimit:4;stroke-dasharray:none;stroke-opacity:1"
     d="m 389.86403,150.88151 -65.12925,37.28744 -65.15545,-44.30571"
     id="path854" /></g></svg>