<?xml version="1.0" encoding="UTF-8" standalone="no"?>
<svg
   xmlns:dc="http://purl.org/dc/elements/1.1/"
   xmlns:cc="http://creativecommons.org/ns#"
   xmlns:rdf="http://www.w3.org/1999/02/22-rdf-syntax-ns#"
   xmlns:svg="http://www.w3.org/2000/svg"
   xmlns="http://www.w3.org/2000/svg"
   xml:space="preserve"
   style="enable-background:new 0 0 246.027 246.027;"
   viewBox="0 0 246.027 246.027"
   y="0px"
   x="0px"
   id="Capa_1"
   version="1.1"><metadata
   id="metadata39"><rdf:RDF><cc:Work
       rdf:about=""><dc:format>image/svg+xml</dc:format><dc:type
         rdf:resource="http://purl.org/dc/dcmitype/StillImage" /><dc:title></dc:title></cc:Work></rdf:RDF></metadata><defs
   id="defs37" />

<g
   id="g4">
</g>
<g
   id="g6">
</g>
<g
   id="g8">
</g>
<g
   id="g10">
</g>
<g
   id="g12">
</g>
<g
   id="g14">
</g>
<g
   id="g16">
</g>
<g
   id="g18">
</g>
<g
   id="g20">
</g>
<g
   id="g22">
</g>
<g
   id="g24">
</g>
<g
   id="g26">
</g>
<g
   id="g28">
</g>
<g
   id="g30">
</g>
<g
   id="g32">
</g>
<path
   style="stroke:#000000;stroke-width:9.21501064;stroke-miterlimit:4;stroke-dasharray:none;stroke-opacity:1"
   id="path4"
   d="M 4.0627729,-34.325403"
   class="st0" /><path
   style="fill:#000000;fill-opacity:1;stroke:none;stroke-width:4.54544973"
   d="m 174.27881,178.30521 c -12.38635,11.36363 -30.96815,16.76817 -52.93176,15.68636 C 76.860731,191.82792 52.088015,165.31887 53.774378,121.50074 54.90165,86.341687 72.347096,46.309914 94.3198,26.855391 a 47.609037,47.609037 0 0 1 33.78633,-14.090894 c 38.8545,1.622726 68.13629,64.377201 66.44538,114.686233 -1.12727,22.18179 -7.88181,38.94995 -20.2727,50.84994 M 99.38798,31.700839 C 78.551639,50.637182 62.801647,88.505321 61.097102,120.94619 c -1.686363,51.40904 31.531788,63.30902 60.249948,64.93175 19.70907,1.08181 35.4545,-3.78637 46.73631,-13.52271 11.2818,-9.73635 17.45452,-24.88634 17.45452,-45.4545 C 187.22879,79.846239 160.20155,21.423578 126.97886,19.800853 118.53341,19.259944 108.9607,23.587212 99.38798,31.700839 m 24.21361,205.027041 -6.75908,3.24545 c -15.76817,-28.13179 -6.75454,-63.83629 3.37727,-102.24534 10.13635,-40.57268 21.39997,-82.768086 3.9409,-120.636225 l 7.31817,-2.72727 c 18.01817,40.031774 6.75909,83.308998 -3.9409,125.504395 -9.00908,36.24542 -18.01816,70.8681 -3.94091,96.81808 m 13.51363,-157.422548 -50.672685,-34.04087 4.504544,-5.949994 45.609051,30.836329 31.53632,-29.754512 5.62273,5.409085 z m 47.86358,0.540909 -54.61812,37.909049 -64.754485,-40.031775 3.940893,-6.490901 60.813592,37.327226 50.67721,-34.622683 z m 6.75908,30.295419 -69.25901,40.07722 -65.881762,-38.40904 3.936362,-6.49545 61.94085,36.24542 65.33175,-37.84541 z m -3.93181,43.85904 -71.51356,19.99998 -58.568129,-27.55906 3.377271,-6.49091 55.745408,25.96816 68.68628,-18.94998 z"
   class="cls-1"
   id="Hassel" /></svg>