<?xml version="1.0" encoding="UTF-8" standalone="no"?>
<svg
   xmlns:dc="http://purl.org/dc/elements/1.1/"
   xmlns:cc="http://creativecommons.org/ns#"
   xmlns:rdf="http://www.w3.org/1999/02/22-rdf-syntax-ns#"
   xmlns:svg="http://www.w3.org/2000/svg"
   xmlns="http://www.w3.org/2000/svg"
   xml:space="preserve"
   style="enable-background:new 0 0 508 508;"
   viewBox="0 0 508 508"
   y="0px"
   x="0px"
   id="Capa_1"
   version="1.1"><metadata
   id="metadata49"><rdf:RDF><cc:Work
       rdf:about=""><dc:format>image/svg+xml</dc:format><dc:type
         rdf:resource="http://purl.org/dc/dcmitype/StillImage" /><dc:title></dc:title></cc:Work></rdf:RDF></metadata><defs
   id="defs47">
	
</defs>
<g
   transform="translate(0,124)"
   id="g6">
	<g
   id="g4">
		<path
   id="path2"
   d="m 368.7,168 v 16.4 c 27.1,0 49.2,22.1 49.2,49.2 h 16.4 c 0,-36.2 -29.4,-65.6 -65.6,-65.6 z" />
	</g>
</g>
<g
   transform="translate(0,124)"
   id="g10">
		<path
   d="m 466.2,246.2 c 0.6,-4.2 0.8,-8.5 0.8,-12.7 0,-54.2 -44.1,-98.3 -98.3,-98.3 -29,0 -55.9,12.5 -74.6,34.4 -5.1,-1.1 -10.3,-1.7 -15.5,-1.7 -21.7,0 -41.9,9.7 -55.6,25.6 -13.8,-13.6 -33.8,-20.1 -53.1,-16.3 -15,-17.1 -36.2,-26.8 -59.1,-26.8 -43.4,0 -78.7,35.3 -78.7,78.7 0,2.9 0.2,5.9 0.5,8.8 C 13.1,246.2 0,265.4 0,287 c 0,29.2 23.8,53 53.1,53 h 70.5 c 11.4,19.6 32.5,32.8 56.7,32.8 h 262.2 c 36.1,0 65.5,-29.4 65.5,-65.5 0,-27.3 -16.9,-51.4 -41.8,-61.1 z M 116.9,323.6 H 53.1 c -20.2,0 -36.7,-16.5 -36.7,-36.7 0,-35 34.9,-37.4 34.9,-37.4 0,0 -2.9,-11.7 -2.9,-20.3 0,-34.4 28,-62.3 62.3,-62.3 35.2,0 52.9,29 52.9,29 0,0 32.4,-9.2 49.8,11.5 -0.4,0.7 -0.9,1.4 -1.2,2.2 -28.5,-3.7 -49.4,14.9 -54.9,36.3 -25.4,9.5 -42.7,34 -42.7,61.4 0.1,5.6 0.9,11.1 2.3,16.3 z m 325.6,32.8 H 180.3 c -27.1,0 -49.2,-22.1 -49.2,-49.2 0,-44.1 40.7,-48.7 40.7,-48.7 l 0.8,-5.2 c 2.3,-16 16.2,-28 32.3,-28 8.3,0 17.2,4 17.2,4 l 2.7,-7.3 c 8.3,-22.5 29.9,-37.7 53.8,-37.7 11.1,0 21.7,4 21.7,4 0,0 19.8,-36.7 68.5,-36.7 45.2,0 81.9,36.8 81.9,81.9 0,15.7 -3.3,24.3 -3.3,24.3 0,0 44.2,6.1 44.2,49.5 0,27.1 -22,49.1 -49.1,49.1 z"
   id="path8" />
	</g>
<g
   id="g14">
</g>
<g
   id="g16">
</g>
<g
   id="g18">
</g>
<g
   id="g20">
</g>
<g
   id="g22">
</g>
<g
   id="g24">
</g>
<g
   id="g26">
</g>
<g
   id="g28">
</g>
<g
   id="g30">
</g>
<g
   id="g32">
</g>
<g
   id="g34">
</g>
<g
   id="g36">
</g>
<g
   id="g38">
</g>
<g
   id="g40">
</g>
<g
   id="g42">
</g>
</svg>