<?xml version="1.0" encoding="UTF-8" standalone="no"?>
<svg
   xmlns:dc="http://purl.org/dc/elements/1.1/"
   xmlns:cc="http://creativecommons.org/ns#"
   xmlns:rdf="http://www.w3.org/1999/02/22-rdf-syntax-ns#"
   xmlns:svg="http://www.w3.org/2000/svg"
   xmlns="http://www.w3.org/2000/svg"
   xml:space="preserve"
   style="enable-background:new 0 0 246.027 246.027;"
   viewBox="0 0 246.027 246.027"
   y="0px"
   x="0px"
   id="Capa_1"
   version="1.1"><metadata
   id="metadata39"><rdf:RDF><cc:Work
       rdf:about=""><dc:format>image/svg+xml</dc:format><dc:type
         rdf:resource="http://purl.org/dc/dcmitype/StillImage" /><dc:title></dc:title></cc:Work></rdf:RDF></metadata><defs
   id="defs37" />

<g
   id="g4">
</g>
<g
   id="g6">
</g>
<g
   id="g8">
</g>
<g
   id="g10">
</g>
<g
   id="g12">
</g>
<g
   id="g14">
</g>
<g
   id="g16">
</g>
<g
   id="g18">
</g>
<g
   id="g20">
</g>
<g
   id="g22">
</g>
<g
   id="g24">
</g>
<g
   id="g26">
</g>
<g
   id="g28">
</g>
<g
   id="g30">
</g>
<g
   id="g32">
</g>
<path
   style="stroke:#000000;stroke-width:9.21501064;stroke-miterlimit:4;stroke-dasharray:none;stroke-opacity:1"
   id="path4"
   d="M 4.0627729,-34.325403"
   class="st0" /><path
   style="fill:#000000;fill-opacity:1;stroke:none;stroke-width:4.39766836"
   d="M 105.67617,46.397379 A 170.55039,170.55039 0 0 0 94.334576,75.681455 c 0,0.514528 -0.492539,1.029055 -0.492539,1.539184 a 149.81098,149.81098 0 0 0 -3.957902,73.981991 56.039492,56.039492 0 0 0 2.467093,9.76283 133.97938,133.97938 0 0 0 28.105502,50.34451 v 23.11854 a 3.4565675,3.4565675 0 1 0 6.90434,0 V 211.8245 a 125.18843,125.18843 0 0 0 29.09058,-50.85904 c 0.98508,-3.07837 1.47762,-6.15673 2.46709,-9.76283 a 149.9605,149.9605 0 0 0 -3.9579,-73.977594 1.9349742,1.9349742 0 0 0 -0.49254,-1.539184 268.38092,268.38092 0 0 0 -11.34159,-28.769548 0.49693655,0.49693655 0 0 0 -0.49254,-0.514527 234.33857,234.33857 0 0 0 -14.76737,-26.205707 2.7089639,2.7089639 0 0 0 -2.96843,-2.053712 3.3510235,3.3510235 0 0 0 -3.45216,3.078369 185.47608,185.47608 0 0 0 -13.80429,25.172255 c -1.48201,-0.514527 -1.48201,-0.514527 -1.97455,0 m 41.91418,31.337787 A 63.612277,63.612277 0 0 1 127.35227,114.20505 V 83.386171 a 71.959052,71.959052 0 0 0 13.33374,-24.657729 c 2.46709,6.156736 4.92979,12.845591 6.90434,19.011122 m 4.43724,71.923886 c -6.90433,20.03578 -18.24593,28.25502 -24.65333,31.33778 v -22.60401 c 5.42233,-1.53918 17.749,-7.19459 27.12043,-25.68679 -0.49254,5.65101 -1.47762,11.30201 -2.4627,16.95302 m -31.55767,0.51452 c -6.90433,-3.07836 -20.22928,-12.31347 -26.135347,-38.01784 a 99.470863,99.470863 0 0 1 3.452166,-20.550319 63.616674,63.616674 0 0 0 23.175731,31.337799 z m -23.668255,-0.51452 c -0.985077,-5.65101 -1.970155,-11.30201 -2.467092,-17.46754 a 47.055055,47.055055 0 0 0 26.135347,25.17225 v 22.60842 c -6.4118,-3.07837 -17.25645,-11.30201 -23.668255,-30.30873 M 154.00215,111.65 c -6.4118,27.22597 -20.70862,35.95974 -27.12043,38.53237 v -27.23476 a 68.880684,68.880684 0 0 0 24.16079,-32.366854 114.18547,114.18547 0 0 1 2.95964,21.064844 M 127.37426,71.059505 V 32.527133 c 2.95964,5.136476 5.91487,10.787481 8.38196,15.928356 a 66.585101,66.585101 0 0 1 -8.38196,22.604016 m -6.90433,-1.539183 a 52.728047,52.728047 0 0 1 -7.39688,-21.064833 c 2.46709,-4.621951 4.92978,-9.235105 7.39688,-14.384775 z m 0,12.313471 V 113.1716 A 60.797769,60.797769 0 0 1 101.23892,77.207446 c 1.97016,-6.680059 4.43725,-12.841193 6.90434,-19.006724 a 63.185703,63.185703 0 0 0 12.31347,23.633071 m -13.31175,97.628267 a 67.099629,67.099629 0 0 0 13.31175,8.73376 v 11.81654 a 94.039747,94.039747 0 0 1 -13.31175,-20.5503 m 20.22928,21.57936 v -12.31348 a 40.115533,40.115533 0 0 0 13.79549,-8.75136 160.07513,160.07513 0 0 1 -13.80428,21.06484"
   class="cls-1"
   id="SalgVide" /></svg>