<?xml version="1.0" encoding="UTF-8" standalone="no"?>
<svg
   xmlns:dc="http://purl.org/dc/elements/1.1/"
   xmlns:cc="http://creativecommons.org/ns#"
   xmlns:rdf="http://www.w3.org/1999/02/22-rdf-syntax-ns#"
   xmlns:svg="http://www.w3.org/2000/svg"
   xmlns="http://www.w3.org/2000/svg"
   version="1.1"
   id="Capa_1"
   x="0px"
   y="0px"
   viewBox="0 0 246.027 246.027"
   style="enable-background:new 0 0 246.027 246.027;"
   xml:space="preserve"><metadata
   id="metadata39"><rdf:RDF><cc:Work
       rdf:about=""><dc:format>image/svg+xml</dc:format><dc:type
         rdf:resource="http://purl.org/dc/dcmitype/StillImage" /><dc:title></dc:title></cc:Work></rdf:RDF></metadata><defs
   id="defs37" />

<g
   id="g4">
</g>
<g
   id="g6">
</g>
<g
   id="g8">
</g>
<g
   id="g10">
</g>
<g
   id="g12">
</g>
<g
   id="g14">
</g>
<g
   id="g16">
</g>
<g
   id="g18">
</g>
<g
   id="g20">
</g>
<g
   id="g22">
</g>
<g
   id="g24">
</g>
<g
   id="g26">
</g>
<g
   id="g28">
</g>
<g
   id="g30">
</g>
<g
   id="g32">
</g>
<path
   class="st0"
   d="M 4.0627729,-34.325403"
   id="path4"
   style="stroke:#000000;stroke-width:9.21501064;stroke-miterlimit:4;stroke-dasharray:none;stroke-opacity:1" /><g
   transform="translate(-218.19634,11.794397)"
   id="g847"><path
     style="fill:none;stroke:#000000;stroke-width:7.5;stroke-linecap:round;stroke-linejoin:miter;stroke-miterlimit:4;stroke-dasharray:none;stroke-opacity:1"
     d="m 328.58453,24.329187 c 0,0 0.55252,30.437215 2.39573,45.519001 1.73042,14.158919 6.59162,27.834173 8.10865,42.017542 2.32638,21.75024 1.4743,65.60633 1.4743,65.60633 l -0.73715,37.59464"
     id="path840" /><path
     style="fill:none;stroke:#000000;stroke-width:7.5;stroke-linecap:butt;stroke-linejoin:miter;stroke-miterlimit:4;stroke-dasharray:none;stroke-opacity:1"
     d="m 339.08891,178.20921 c 0,0 -9.75576,4.57319 -14.74299,3.68575 -7.31373,-1.30142 -13.33657,-7.12285 -18.42875,-12.53155 -8.23263,-8.74435 -15.24318,-19.38048 -18.42874,-30.96029 -3.78012,-13.7411 -2.38775,-28.70458 0,-42.754688 1.74468,-10.266088 6.15829,-19.940528 10.32009,-29.485993 3.9975,-9.168646 8.477,-18.202168 14.00585,-26.537393 5.79122,-8.730778 19.90304,-24.325944 19.90304,-24.325944 0,0 -1.30325,5.92706 -0.36857,8.66151 1.17024,3.423587 4.35554,5.826803 7.00292,8.292936 8.23524,7.671444 19.87048,11.426607 27.27455,19.903045 6.79879,7.783491 11.04244,17.625077 14.74299,27.274543 2.62481,6.844384 4.32119,14.095068 5.16005,21.377344 1.10148,9.56214 0.89993,19.31484 -0.21591,28.87532 -1.14316,9.79461 -2.6987,19.78057 -6.5973,28.83828 -3.50259,8.13765 -7.4026,17.15382 -14.74299,22.11449 -3.69309,2.4958 -8.65625,3.19232 -13.08984,2.73269 -4.26838,-0.4425 -8.10865,-4.4229 -11.7944,-5.16005 z"
     id="path842" /><path
     style="fill:none;stroke:#000000;stroke-width:3.5;stroke-linecap:round;stroke-linejoin:miter;stroke-miterlimit:4;stroke-dasharray:none;stroke-opacity:1"
     d="m 290.72017,140.32724 c 0,0 17.6554,20.13227 28.57853,27.17897 6.47228,4.17541 13.67736,8.37617 21.24259,8.52389 6.6973,0.13076 13.15541,-3.42214 19.05244,-6.80679 7.41185,-4.25407 19.87888,-16.59863 19.87888,-16.59863"
     id="path846" /><path
     style="fill:none;stroke:#000000;stroke-width:3.5;stroke-linecap:round;stroke-linejoin:miter;stroke-miterlimit:4;stroke-dasharray:none;stroke-opacity:1"
     d="m 286.64371,112.02661 c 0,0 11.67712,22.97863 20.86726,31.94232 6.68733,6.52255 14.99855,11.91409 23.99735,14.97297 3.13051,1.06412 6.6027,1.27895 9.91195,0.9982 6.85236,-0.58136 14.0618,-1.89479 19.82389,-5.49009 9.30594,-5.80651 21.38895,-24.45585 21.38895,-24.45585"
     id="path848" /><path
     style="fill:none;stroke:#000000;stroke-width:3.5;stroke-linecap:round;stroke-linejoin:miter;stroke-miterlimit:4;stroke-dasharray:none;stroke-opacity:1"
     d="m 290.91718,85.662818 c 0,0 9.28142,23.428002 16.15855,33.880832 4.0606,6.17187 8.52606,12.46664 14.59482,16.6798 5.64622,3.91982 12.42146,7.64753 19.28602,7.29741 6.98414,-0.35622 13.2827,-5.04051 18.76477,-9.38239 5.3189,-4.21265 8.89119,-10.26157 13.03109,-15.6373 4.94179,-6.417 14.07358,-19.807259 14.07358,-19.807259"
     id="path850" /><path
     style="fill:none;stroke:#000000;stroke-width:3.5;stroke-linecap:round;stroke-linejoin:miter;stroke-miterlimit:4;stroke-dasharray:none;stroke-opacity:1"
     d="m 294.4343,74.468612 c 0,0 12.43158,21.954878 20.88329,31.450778 3.37796,3.7953 7.18921,7.43377 11.72831,9.98493 4.041,2.2712 8.61634,4.76687 13.33164,4.47213 7.44634,-0.46548 13.77391,-5.58796 19.83914,-9.61847 4.30138,-2.85839 8.39545,-6.17866 11.48581,-10.16103 3.59103,-4.62754 7.83123,-15.483456 7.83123,-15.483456"
     id="path852" /><path
     style="fill:none;stroke:#000000;stroke-width:3.5;stroke-linecap:round;stroke-linejoin:miter;stroke-miterlimit:4;stroke-dasharray:none;stroke-opacity:1"
     d="m 304.40628,59.998967 c 0,0 10.00129,14.328319 16.6798,20.284954 4.40259,3.926721 8.7927,9.812436 15.11606,9.917088 6.36143,0.105282 11.68479,-5.154373 15.63731,-9.466312 4.64995,-5.072794 6.03691,-11.871718 8.3399,-18.031069 1.10204,-2.947409 2.60622,-9.015534 2.60622,-9.015534"
     id="path854" /><path
     style="fill:none;stroke:#000000;stroke-width:3.5;stroke-linecap:round;stroke-linejoin:miter;stroke-miterlimit:4;stroke-dasharray:none;stroke-opacity:1"
     d="m 313.26742,41.644938 c 0,0 6.67306,13.87279 11.46736,18.950607 2.10741,2.232032 4.58881,5.054777 7.29741,4.737652 4.32614,-0.506508 8.15543,-5.343064 10.42487,-10.152111 2.11923,-4.490735 2.08498,-15.56657 2.08498,-15.56657"
     id="path856" /><path
     style="fill:none;stroke:#000000;stroke-width:3.5;stroke-linecap:round;stroke-linejoin:miter;stroke-miterlimit:4;stroke-dasharray:none;stroke-opacity:1"
     d="m 340.37209,105.9301 c 0,0 11.09834,-4.53146 15.63731,-8.11079 3.84451,-3.031689 6.85094,-6.947837 9.38238,-10.973423 3.73407,-5.93805 8.3399,-19.084215 8.3399,-19.084215"
     id="path858" /></g></svg>