<?xml version="1.0" encoding="UTF-8" standalone="no"?>
<svg
   xmlns:dc="http://purl.org/dc/elements/1.1/"
   xmlns:cc="http://creativecommons.org/ns#"
   xmlns:rdf="http://www.w3.org/1999/02/22-rdf-syntax-ns#"
   xmlns:svg="http://www.w3.org/2000/svg"
   xmlns="http://www.w3.org/2000/svg"
   xml:space="preserve"
   style="enable-background:new 0 0 512.001 512.001;"
   viewBox="0 0 512.001 512.001"
   y="0px"
   x="0px"
   id="Capa_1"
   version="1.1"><metadata
   id="metadata51"><rdf:RDF><cc:Work
       rdf:about=""><dc:format>image/svg+xml</dc:format><dc:type
         rdf:resource="http://purl.org/dc/dcmitype/StillImage" /><dc:title></dc:title></cc:Work></rdf:RDF></metadata><defs
   id="defs49" />
<g
   id="g14">
	<g
   id="g12">
		<g
   id="g10">
			
			<path
   id="path4"
   d="m 227.595,99.398 c 12.248,-14.593 19.034,-23.886 19.54,-24.583 4.868,-6.703 3.379,-16.083 -3.324,-20.951 -6.704,-4.867 -16.083,-3.381 -20.952,3.324 -45.478,62.613 -133.341,143.768 -214.625,185.424 -0.025,0.013 -0.049,0.025 -0.073,0.038 -3.444,1.765 -6.01,4.752 -7.277,8.277 -1.178,3.275 -1.179,6.867 0,10.147 1.267,3.524 3.833,6.512 7.277,8.277 0.025,0.013 0.049,0.025 0.073,0.038 88.138,45.166 173.306,128.696 214.626,185.424 4.844,6.67 14.217,8.214 20.952,3.324 6.703,-4.868 8.191,-14.248 3.324,-20.951 -0.507,-0.697 -7.292,-9.99 -19.54,-24.583 C 251.984,368.814 260.28,306.299 260.28,256 c 0,-50.333 -8.307,-112.833 -32.685,-156.602 z M 206.347,388.375 C 160.741,338.492 105.24,290.488 46.193,256 c 58.936,-34.422 114.404,-82.337 160.154,-132.374 7.51,16.124 13.45,35.958 17.534,58.205 -36.1,5.387 -63.882,36.592 -63.882,74.169 0,37.577 27.781,68.782 63.883,74.17 -4.086,22.248 -10.025,42.081 -17.535,58.205 z M 189.998,256 c 0,-22.458 16.537,-41.124 38.073,-44.466 1.45,14.259 2.21,29.166 2.21,44.466 0,15.3 -0.76,30.208 -2.21,44.466 C 206.535,297.124 189.998,278.458 189.998,256 Z" />
			
			<path
   style="stroke-width:0.53012735"
   id="path8"
   d="m 285.63614,271 h 39.9067 c 2.32809,0 4.21552,-6.716 4.21552,-15 0,-8.284 -1.88743,-15 -4.21552,-15 h -39.9067 c -2.32809,0 -4.21552,6.716 -4.21552,15 0,8.284 1.88743,15 4.21552,15 z" />
		<path
   d="m 347.63614,271 h 39.9067 c 2.32809,0 4.21552,-6.716 4.21552,-15 0,-8.284 -1.88743,-15 -4.21552,-15 h -39.9067 c -2.32809,0 -4.21552,6.716 -4.21552,15 0,8.284 1.88743,15 4.21552,15 z"
   id="path858"
   style="stroke-width:0.53012735" /><path
   style="stroke-width:0.53012735"
   id="path860"
   d="m 407.63614,271 h 39.9067 c 2.32809,0 4.21552,-6.716 4.21552,-15 0,-8.284 -1.88743,-15 -4.21552,-15 h -39.9067 c -2.32809,0 -4.21552,6.716 -4.21552,15 0,8.284 1.88743,15 4.21552,15 z" /><path
   d="m 465.63614,271 h 39.9067 c 2.32809,0 4.21552,-6.716 4.21552,-15 0,-8.284 -1.88743,-15 -4.21552,-15 h -39.9067 c -2.32809,0 -4.21552,6.716 -4.21552,15 0,8.284 1.88743,15 4.21552,15 z"
   id="path862"
   style="stroke-width:0.53012735" /></g>
	</g>
</g>
<g
   id="g16">
</g>
<g
   id="g18">
</g>
<g
   id="g20">
</g>
<g
   id="g22">
</g>
<g
   id="g24">
</g>
<g
   id="g26">
</g>
<g
   id="g28">
</g>
<g
   id="g30">
</g>
<g
   id="g32">
</g>
<g
   id="g34">
</g>
<g
   id="g36">
</g>
<g
   id="g38">
</g>
<g
   id="g40">
</g>
<g
   id="g42">
</g>
<g
   id="g44">
</g>
</svg>